<svg xmlns="http://www.w3.org/2000/svg" xmlns:xlink="http://www.w3.org/1999/xlink" viewBox="0 0 69.41 94.79"><defs><style>.cls-1,.cls-2,.cls-3,.cls-4,.cls-5,.cls-6,.cls-7,.cls-8,.cls-9{fill-rule:evenodd;}.cls-1{fill:url(#linear-gradient);}.cls-2{fill:url(#linear-gradient-2);}.cls-3{fill:url(#linear-gradient-3);}.cls-4{fill:url(#linear-gradient-4);}.cls-5{fill:#f1f2f2;}.cls-10,.cls-6{fill:#414042;}.cls-7{fill:url(#linear-gradient-5);}.cls-8{fill:#caebf3;}.cls-9{fill:#726658;}</style><linearGradient id="linear-gradient" x1="14.44" y1="0.55" x2="14.44" y2="73.92" gradientUnits="userSpaceOnUse"><stop offset="0" stop-color="#ff639d"/><stop offset="1" stop-color="#96a3ff" stop-opacity="0.94"/></linearGradient><linearGradient id="linear-gradient-2" x1="25.65" y1="0.02" x2="25.65" y2="74.15" xlink:href="#linear-gradient"/><linearGradient id="linear-gradient-3" x1="45.31" y1="0.14" x2="45.31" y2="74.22" xlink:href="#linear-gradient"/><linearGradient id="linear-gradient-4" x1="56.51" y1="2.06" x2="56.51" y2="73.92" xlink:href="#linear-gradient"/><linearGradient id="linear-gradient-5" x1="34.39" y1="71.77" x2="34.39" y2="77.02" xlink:href="#linear-gradient"/></defs><title>Asset 25</title><g id="Layer_2" data-name="Layer 2"><g id="Layer_1-2" data-name="Layer 1"><g id="_Group_" data-name="&lt;Group&gt;"><path id="_Path_" data-name="&lt;Path&gt;" class="cls-1" d="M26.12,1.52a9.11,9.11,0,0,1,2.77-1C14.19,3.39.21,16.9,0,33-.28,54.45,20.59,70.37,25.67,73.92-13.95,23.14,26.12,1.52,26.12,1.52Z"/><path id="_Path_2" data-name="&lt;Path&gt;" class="cls-2" d="M28.41,74.12l3.62,0C18.33,23.59,33,.36,33,.36A4.57,4.57,0,0,1,33.88,0a29.46,29.46,0,0,0-4.07.37c.52-.08.87-.11.87-.11C3.38,21.46,26.34,69.91,28.41,74.12Z"/><path id="_Path_3" data-name="&lt;Path&gt;" class="cls-3" d="M37.1,74.19l3.61,0C43,70,68,22.75,41.27.9c0,0,0-.05.25,0A32.07,32.07,0,0,0,37.21.14l.07,0C48.71,22.28,37.75,71.34,37.1,74.19Z"/><path id="_Path_4" data-name="&lt;Path&gt;" class="cls-4" d="M43.6,73.92c5.35-4,25.15-20.05,25.8-40,.46-14.39-11-27-24-31.84C50,5,81.45,27.77,43.6,73.92Z"/><path id="_Path_5" data-name="&lt;Path&gt;" class="cls-5" d="M28.41,74.12c-2.07-4.21-25-52.66,2.27-73.84,0,0-.35,0-.87.11l-.92.16a9.11,9.11,0,0,0-2.77,1s-40.07,21.62-.45,72.4l.24.18Z"/><path id="_Path_6" data-name="&lt;Path&gt;" class="cls-5" d="M41.27.9C68,22.75,43,70,40.71,74.22l2.39,0,0,.08.54-.4C81.45,27.77,50,5,45.43,2.06A38.06,38.06,0,0,0,41.52.87C41.26.85,41.27.9,41.27.9Z"/><path id="_Path_7" data-name="&lt;Path&gt;" class="cls-5" d="M32,74.15l5.07,0c.65-2.85,11.61-51.91.18-74l-.07,0C36.42.07,35.63,0,34.84,0l-1,0A4.57,4.57,0,0,0,33,.36S18.33,23.59,32,74.15Z"/><polygon id="_Path_8" data-name="&lt;Path&gt;" class="cls-6" points="27.44 85.4 26.53 76.22 26.86 76.19 27.12 78.75 28.28 76.56 28.57 76.72 27.18 79.35 27.77 85.36 27.44 85.4"/><polygon id="_Path_9" data-name="&lt;Path&gt;" class="cls-6" points="34.07 85.47 34.19 79.53 32.12 76.83 32.39 76.62 34.2 78.99 34.27 75.58 34.6 75.59 34.53 78.94 36.18 76.63 36.45 76.82 34.52 79.53 34.52 79.53 34.41 85.47 34.07 85.47"/><polygon id="_Path_10" data-name="&lt;Path&gt;" class="cls-6" points="41.02 85.44 41.72 79.61 40.08 76.71 40.37 76.55 41.78 79.04 42.1 76.41 42.43 76.45 41.35 85.47 41.02 85.44"/><polygon id="_Path_11" data-name="&lt;Path&gt;" class="cls-7" points="42.3 77.02 26.6 76.81 22.68 71.77 46.09 72.08 42.3 77.02"/><path id="_Compound_Path_" data-name="&lt;Compound Path&gt;" class="cls-8" d="M26.13,76.19l-.57-.72,17.75.23-.55.71-16.63-.22Zm-2.32-3-.57-.73,22.31.3-.54.71Z"/><path id="_Path_12" data-name="&lt;Path&gt;" class="cls-9" d="M41.43,93.46c1-2.34.11-8.13.11-8.13l-14.33-.19s-1.06,5.77-.11,8.13C27.87,95.18,40.62,95.34,41.43,93.46Z"/><path id="_Path_13" data-name="&lt;Path&gt;" class="cls-6" d="M41.66,92.73c.63-2.63-.12-7.4-.12-7.4l-14.33-.19s-.87,4.75-.32,7.4C30.05,93.55,38.47,93.66,41.66,92.73Z"/><rect id="_Path_14" data-name="&lt;Path&gt;" class="cls-10" x="34.08" y="77.7" width="0.82" height="15.36" transform="translate(-51.34 118.74) rotate(-89.25)"/></g></g></g></svg>