<svg xmlns="http://www.w3.org/2000/svg" xmlns:xlink="http://www.w3.org/1999/xlink" viewBox="0 0 43.94 60"><defs><style>.cls-1,.cls-2,.cls-3,.cls-4,.cls-5,.cls-6,.cls-7,.cls-8,.cls-9{fill-rule:evenodd;}.cls-1{fill:url(#linear-gradient);}.cls-2{fill:url(#linear-gradient-2);}.cls-3{fill:url(#linear-gradient-3);}.cls-4{fill:url(#linear-gradient-4);}.cls-5{fill:#f1f2f2;}.cls-10,.cls-6{fill:#414042;}.cls-7{fill:url(#linear-gradient-5);}.cls-8{fill:#caebf3;}.cls-9{fill:#726658;}</style><linearGradient id="linear-gradient" x1="9.14" y1="0.35" x2="9.14" y2="46.79" gradientUnits="userSpaceOnUse"><stop offset="0" stop-color="#02c41f"/><stop offset="1" stop-color="#4791ff" stop-opacity="0.94"/></linearGradient><linearGradient id="linear-gradient-2" x1="16.23" y1="0.01" x2="16.23" y2="46.93" xlink:href="#linear-gradient"/><linearGradient id="linear-gradient-3" x1="28.68" y1="0.09" x2="28.68" y2="46.98" xlink:href="#linear-gradient"/><linearGradient id="linear-gradient-4" x1="35.77" y1="1.31" x2="35.77" y2="46.79" xlink:href="#linear-gradient"/><linearGradient id="linear-gradient-5" x1="21.77" y1="45.43" x2="21.77" y2="48.75" xlink:href="#linear-gradient"/></defs><title>Asset 24</title><g id="Layer_2" data-name="Layer 2"><g id="Layer_1-2" data-name="Layer 1"><g id="_Group_" data-name="&lt;Group&gt;"><path id="_Path_" data-name="&lt;Path&gt;" class="cls-1" d="M16.53,1A5.74,5.74,0,0,1,18.29.35C9,2.15.14,10.7,0,20.88-.18,34.47,13,44.54,16.25,46.79-8.83,14.65,16.53,1,16.53,1Z"/><path id="_Path_2" data-name="&lt;Path&gt;" class="cls-2" d="M18,46.92h2.29c-8.67-32,.64-46.7.64-46.7A2.6,2.6,0,0,1,21.44,0a18.75,18.75,0,0,0-2.57.24l.55-.07C2.14,13.59,16.67,44.25,18,46.92Z"/><path id="_Path_3" data-name="&lt;Path&gt;" class="cls-3" d="M23.48,47l2.29,0C27.24,44.28,43,14.4,26.12.57c0,0,0,0,.16,0A20.07,20.07,0,0,0,23.56.09l0,0C30.83,14.1,23.9,45.16,23.48,47Z"/><path id="_Path_4" data-name="&lt;Path&gt;" class="cls-4" d="M27.6,46.79C31,44.27,43.52,34.1,43.93,21.46,44.22,12.35,37,4.35,28.75,1.31,31.64,3.17,51.56,17.58,27.6,46.79Z"/><path id="_Path_5" data-name="&lt;Path&gt;" class="cls-5" d="M18,46.92C16.67,44.25,2.14,13.59,19.42.18l-.55.07-.58.1A5.74,5.74,0,0,0,16.53,1s-25.36,13.69-.28,45.83l.15.11Z"/><path id="_Path_6" data-name="&lt;Path&gt;" class="cls-5" d="M26.12.57C43,14.4,27.24,44.28,25.77,47h1.51l0,0,.34-.25c24-29.21,4-43.62,1.15-45.48A20.07,20.07,0,0,0,26.28.55C26.12.54,26.12.57,26.12.57Z"/><path id="_Path_7" data-name="&lt;Path&gt;" class="cls-5" d="M20.27,46.93l3.21,0c.42-1.8,7.35-32.86.12-46.85l0,0Q22.8,0,22.06,0h-.62a2.6,2.6,0,0,0-.53.22S11.6,14.94,20.27,46.93Z"/><polygon id="_Path_8" data-name="&lt;Path&gt;" class="cls-6" points="17.37 54.05 16.79 48.24 17 48.22 17.16 49.85 17.9 48.46 18.09 48.56 17.2 50.23 17.58 54.03 17.37 54.05"/><polygon id="_Path_9" data-name="&lt;Path&gt;" class="cls-6" points="21.57 54.1 21.64 50.34 20.33 48.63 20.5 48.5 21.65 50 21.69 47.84 21.9 47.85 21.86 49.97 22.9 48.5 23.07 48.63 21.85 50.34 21.85 50.34 21.78 54.1 21.57 54.1"/><polygon id="_Path_10" data-name="&lt;Path&gt;" class="cls-6" points="25.96 54.08 26.41 50.39 25.37 48.56 25.56 48.45 26.45 50.03 26.65 48.37 26.86 48.39 26.17 54.1 25.96 54.08"/><polygon id="_Path_11" data-name="&lt;Path&gt;" class="cls-7" points="26.77 48.75 16.84 48.62 14.36 45.43 29.18 45.62 26.77 48.75"/><path id="_Compound_Path_" data-name="&lt;Compound Path&gt;" class="cls-8" d="M16.54,48.23l-.36-.46,11.23.15-.34.45-10.53-.14Zm-1.47-1.89-.36-.46,14.12.19-.34.45Z"/><path id="_Path_12" data-name="&lt;Path&gt;" class="cls-9" d="M26.23,59.16c.64-1.48.06-5.15.06-5.15l-9.07-.12s-.67,3.65-.06,5.15C17.64,60.25,25.71,60.35,26.23,59.16Z"/><path id="_Path_13" data-name="&lt;Path&gt;" class="cls-6" d="M26.37,58.7A16,16,0,0,0,26.29,54l-9.07-.12a16.25,16.25,0,0,0-.2,4.68A23.73,23.73,0,0,0,26.37,58.7Z"/><rect id="_Path_14" data-name="&lt;Path&gt;" class="cls-10" x="21.57" y="49.18" width="0.52" height="9.73" transform="translate(-32.5 75.16) rotate(-89.25)"/></g></g></g></svg>