<svg xmlns="http://www.w3.org/2000/svg" xmlns:xlink="http://www.w3.org/1999/xlink" viewBox="0 0 87.87 120"><defs><style>.cls-1,.cls-2,.cls-3,.cls-4,.cls-5,.cls-6,.cls-7,.cls-8,.cls-9{fill-rule:evenodd;}.cls-1{fill:url(#linear-gradient);}.cls-2{fill:url(#linear-gradient-2);}.cls-3{fill:url(#linear-gradient-3);}.cls-4{fill:url(#linear-gradient-4);}.cls-5{fill:#f1f2f2;}.cls-10,.cls-6{fill:#414042;}.cls-7{fill:url(#linear-gradient-5);}.cls-8{fill:#caebf3;}.cls-9{fill:#726658;}</style><linearGradient id="linear-gradient" x1="18.29" y1="0.7" x2="18.29" y2="93.59" gradientUnits="userSpaceOnUse"><stop offset="0" stop-color="#3503ff"/><stop offset="1" stop-color="#00cc96" stop-opacity="0.94"/></linearGradient><linearGradient id="linear-gradient-2" x1="32.47" y1="0.02" x2="32.47" y2="93.87" xlink:href="#linear-gradient"/><linearGradient id="linear-gradient-3" x1="57.36" y1="0.18" x2="57.36" y2="93.96" xlink:href="#linear-gradient"/><linearGradient id="linear-gradient-4" x1="71.54" y1="2.61" x2="71.54" y2="93.58" xlink:href="#linear-gradient"/><linearGradient id="linear-gradient-5" x1="43.53" y1="90.85" x2="43.53" y2="97.5" xlink:href="#linear-gradient"/></defs><title>Asset 23</title><g id="Layer_2" data-name="Layer 2"><g id="Layer_1-2" data-name="Layer 1"><g id="_Group_" data-name="&lt;Group&gt;"><path id="_Path_" data-name="&lt;Path&gt;" class="cls-1" d="M33.07,1.93A11.28,11.28,0,0,1,36.57.7C18,4.29.27,21.4,0,41.76-.35,68.94,26.06,89.09,32.49,93.59-17.66,29.29,33.07,1.93,33.07,1.93Z"/><path id="_Path_2" data-name="&lt;Path&gt;" class="cls-2" d="M36,93.83l4.59,0C23.2,29.87,41.81.45,41.81.45A7.82,7.82,0,0,1,42.89,0a39,39,0,0,0-5.15.47c.66-.1,1.1-.13,1.1-.13C4.28,27.17,33.35,88.51,36,93.83Z"/><path id="_Path_3" data-name="&lt;Path&gt;" class="cls-3" d="M47,93.92l4.57,0c3-5.39,34.48-65.16.71-92.83,0,0,0-.06.31,0A41.35,41.35,0,0,0,47.11.18l.09,0C61.67,28.2,47.79,90.32,47,93.92Z"/><path id="_Path_4" data-name="&lt;Path&gt;" class="cls-4" d="M55.2,93.58C62,88.54,87,68.2,87.85,42.92,88.44,24.69,74,8.69,57.51,2.61,63.27,6.33,103.11,35.16,55.2,93.58Z"/><path id="_Path_5" data-name="&lt;Path&gt;" class="cls-5" d="M36,93.83C33.35,88.51,4.28,27.17,38.84.36c0,0-.44,0-1.1.13L36.57.7a11.28,11.28,0,0,0-3.5,1.23s-50.73,27.36-.58,91.66l.31.22Z"/><path id="_Path_6" data-name="&lt;Path&gt;" class="cls-5" d="M52.25,1.13C86,28.8,54.49,88.57,51.54,94l3,0,0,.09.68-.5c47.91-58.42,8.07-87.25,2.31-91A45.32,45.32,0,0,0,52.56,1.1C52.23,1.07,52.25,1.13,52.25,1.13Z"/><path id="_Path_7" data-name="&lt;Path&gt;" class="cls-5" d="M40.55,93.87l6.42,0c.82-3.6,14.7-65.72.23-93.7l-.09,0c-1-.1-2-.17-3-.18L42.89,0a7.82,7.82,0,0,0-1.08.43S23.2,29.87,40.55,93.87Z"/><polygon id="_Path_8" data-name="&lt;Path&gt;" class="cls-6" points="34.74 108.11 33.59 96.49 34.01 96.45 34.33 99.69 35.8 96.93 36.17 97.12 34.4 100.45 35.16 108.07 34.74 108.11"/><polygon id="_Path_9" data-name="&lt;Path&gt;" class="cls-6" points="43.13 108.2 43.28 100.68 40.66 97.26 41 97 43.3 100 43.38 95.69 43.8 95.69 43.72 99.93 45.8 97.01 46.14 97.25 43.7 100.68 43.7 100.68 43.56 108.21 43.13 108.2"/><polygon id="_Path_10" data-name="&lt;Path&gt;" class="cls-6" points="51.92 108.16 52.81 100.78 50.74 97.11 51.11 96.91 52.89 100.07 53.29 96.73 53.71 96.78 52.34 108.21 51.92 108.16"/><polygon id="_Path_11" data-name="&lt;Path&gt;" class="cls-7" points="53.55 97.5 33.68 97.24 28.72 90.85 58.35 91.24 53.55 97.5"/><path id="_Compound_Path_" data-name="&lt;Compound Path&gt;" class="cls-8" d="M33.07,96.46l-.71-.92,22.46.3-.69.9-21.06-.28Zm-2.93-3.78-.72-.92,28.25.37L57,93Z"/><path id="_Path_12" data-name="&lt;Path&gt;" class="cls-9" d="M52.45,118.31c1.28-3,.14-10.28.14-10.28l-18.14-.24s-1.34,7.29-.14,10.28C35.28,120.49,51.42,120.7,52.45,118.31Z"/><path id="_Path_13" data-name="&lt;Path&gt;" class="cls-6" d="M52.75,117.4c.78-3.33-.16-9.37-.16-9.37l-18.14-.24s-1.11,6-.41,9.36C38.05,118.43,48.71,118.57,52.75,117.4Z"/><rect id="_Path_14" data-name="&lt;Path&gt;" class="cls-10" x="43.14" y="98.36" width="1.04" height="19.45" transform="translate(-65 150.32) rotate(-89.25)"/></g></g></g></svg>