<svg xmlns="http://www.w3.org/2000/svg" viewBox="0 0 124.09 400"><defs><style>.cls-1{fill:#929497;}.cls-2{fill:#808184;}.cls-3{fill:#d0d2d3;}.cls-4{fill:#c1c2c2;}.cls-5{fill:#bbbdbf;}.cls-6{fill:#a6a8ab;}.cls-7{fill:#58595b;}.cls-8{fill:#6d6e70;}</style></defs><title>Asset 5</title><g id="Layer_2" data-name="Layer 2"><g id="Layer_1-2" data-name="Layer 1"><g id="_Group_" data-name="&lt;Group&gt;"><rect id="_Path_" data-name="&lt;Path&gt;" class="cls-1" x="61.31" width="4.38" height="86.62"/><rect id="_Path_2" data-name="&lt;Path&gt;" class="cls-1" x="55.23" y="72.02" width="16.55" height="118.73"/><rect id="_Path_3" data-name="&lt;Path&gt;" class="cls-2" x="55.23" y="72.02" width="2.52" height="118.73"/><rect id="_Path_4" data-name="&lt;Path&gt;" class="cls-3" x="42.16" y="135.52" width="22.38" height="264.48"/><rect id="_Path_5" data-name="&lt;Path&gt;" class="cls-2" x="61.13" y="135.52" width="3.41" height="264.48"/><rect id="_Path_6" data-name="&lt;Path&gt;" class="cls-4" x="27.03" y="231.14" width="22.38" height="168.86"/><rect id="_Path_7" data-name="&lt;Path&gt;" class="cls-1" x="46.01" y="231.14" width="3.41" height="168.86"/><rect id="_Path_8" data-name="&lt;Path&gt;" class="cls-5" x="14.9" y="313.38" width="22.38" height="86.62"/><rect id="_Path_9" data-name="&lt;Path&gt;" class="cls-1" x="33.88" y="313.38" width="3.41" height="86.62"/><rect id="_Path_10" data-name="&lt;Path&gt;" class="cls-5" x="61.13" y="181.27" width="22.38" height="218.73"/><rect id="_Path_11" data-name="&lt;Path&gt;" class="cls-2" x="61.13" y="181.27" width="3.41" height="218.73"/><rect id="_Path_12" data-name="&lt;Path&gt;" class="cls-5" x="76.26" y="263.99" width="22.38" height="136.01"/><rect id="_Path_13" data-name="&lt;Path&gt;" class="cls-1" x="76.26" y="263.99" width="3.41" height="136.01"/><rect id="_Path_14" data-name="&lt;Path&gt;" class="cls-6" x="88.39" y="351.58" width="22.38" height="48.42"/><rect id="_Path_15" data-name="&lt;Path&gt;" class="cls-1" x="88.39" y="351.58" width="3.41" height="48.42"/><rect id="_Path_16" data-name="&lt;Path&gt;" class="cls-7" y="385.65" width="124.09" height="14.35"/><rect id="_Path_17" data-name="&lt;Path&gt;" class="cls-8" x="10.22" y="376.89" width="103.65" height="8.76"/></g></g></g></svg>