<svg xmlns="http://www.w3.org/2000/svg" viewBox="0 0 4172.67 250"><defs><style>.cls-1{fill:#777;fill-rule:evenodd;}</style></defs><title>Asset 3</title><g id="Layer_2" data-name="Layer 2"><g id="Layer_1-2" data-name="Layer 1"><polygon class="cls-1" points="4160.4 159.6 4160.4 170.15 4151.42 170.15 4151.42 177.47 4149.86 177.47 4149.86 161 4132.35 161 4132.35 194.72 4130.67 196.16 4130.67 175.44 4122.17 175.44 4122.17 164.06 4115.57 164.06 4115.57 173.39 4109.67 173.39 4109.67 147.21 4096.69 136.04 4086.79 144.57 4086.79 162.13 4070.2 162.13 4070.2 186.8 4063.66 186.8 4063.66 180.71 4055.17 180.71 4055.17 164.87 4043.65 164.87 4043.65 147.45 4036.31 147.45 4036.31 164.87 4016.47 164.87 4016.47 153.5 4007.52 153.5 4007.52 164.06 4000.89 164.06 4000.89 213.22 3990.99 204.68 3983.2 204.68 3983.2 173.43 3973.6 173.43 3973.6 196.16 3972.59 196.16 3972.59 203.87 3965.02 203.87 3965.02 198.2 3960.77 196.16 3960.77 167.71 3954.64 167.71 3954.64 159.19 3950.87 159.19 3950.87 168.95 3947.05 168.95 3947.05 162.13 3935.3 162.13 3935.3 151.88 3930.1 151.88 3930.1 144.98 3922.07 144.98 3922.07 139.29 3914.07 139.29 3914.07 144.98 3909.59 144.98 3909.59 205.7 3898.97 196.56 3898.97 165.28 3894.24 165.28 3894.24 157.55 3888.12 157.55 3888.12 163.25 3887.73 163.25 3887.73 150.84 3872.48 150.84 3872.48 190.87 3865.92 190.87 3865.92 180.71 3864.99 180.71 3864.99 144.7 3856.09 144.7 3856.09 114.12 3843.66 114.12 3843.66 144.7 3831.89 144.7 3831.89 176.66 3826.29 176.66 3826.29 159.6 3806.49 159.6 3806.49 176.66 3799.87 176.66 3799.87 151.69 3796.21 151.69 3796.21 127.67 3779.26 127.67 3779.26 144.77 3777.92 144.77 3773.9 148.22 3770.22 148.22 3770.22 107.34 3757.87 107.34 3757.87 87.65 3745.59 87.65 3743.24 65.71 3743.24 97.79 3736.75 97.79 3736.75 108.05 3733.57 110.79 3733.57 159 3729.55 162.44 3725.77 159.19 3725.77 155.13 3720.12 155.13 3720.12 152.7 3714.92 152.7 3714.92 148.64 3712.6 148.64 3712.6 137.84 3702.43 137.84 3702.43 155.13 3700.77 155.13 3700.77 160.82 3695.11 160.82 3695.11 155.94 3691.32 152.7 3691.32 142.95 3685.67 142.95 3685.67 145.79 3682.37 145.79 3682.37 123.14 3680.96 123.14 3680.96 94.91 3653.85 94.91 3653.85 123.44 3642.24 123.44 3642.24 129.13 3640.29 129.13 3640.29 105.08 3625.29 105.08 3625.29 93.7 3622.63 93.7 3622.63 105.08 3596.22 105.08 3579.28 105.08 3579.28 128.33 3571.47 128.33 3571.47 136.85 3561.09 136.85 3561.09 127.5 3542.67 127.5 3536.34 132.97 3536.34 94.91 3522.78 94.91 3522.78 134.41 3511.07 134.41 3511.07 130.76 3502.59 130.76 3502.59 48.03 3502.47 48.03 3502.47 45.04 3495.47 45.04 3495.47 26.26 3486.63 26.26 3486.63 0 3473.07 0 3473.07 26.26 3461.04 26.26 3461.04 45.04 3455.03 45.04 3455.03 144.16 3449.24 144.16 3449.24 121.03 3443.57 107.21 3437.44 119.38 3417.71 119.38 3417.71 82.48 3395.11 82.48 3395.11 133.19 3389.3 133.19 3389.3 138.9 3381.76 138.9 3381.76 122.62 3377.59 122.62 3377.59 94.77 3361.7 94.77 3361.7 122.62 3360.99 122.62 3351.57 125.48 3351.57 141.73 3341.17 141.73 3341.17 151.07 3334.57 151.07 3334.57 120.2 3323.97 120.2 3323.97 128.11 3319.41 132.03 3319.41 75.7 3294.55 75.7 3294.55 136.85 3277.01 136.85 3277.01 128.72 3274.21 128.72 3274.21 93.43 3251.04 93.43 3251.04 57.31 3243.81 57.31 3243.81 35.29 3237.21 35.29 3237.21 18.29 3226.61 18.29 3226.61 35.29 3221.31 35.29 3221.31 57.31 3214.24 57.31 3214.24 63.27 3192.86 63.27 3192.86 115.73 3184.95 115.73 3184.95 88.13 3162.36 88.13 3162.36 110.06 3150.53 110.06 3150.53 103.15 3146.74 103.15 3146.74 111.27 3132.6 111.27 3132.6 125.48 3126 130.9 3126.12 159.6 3124.4 159.6 3124.4 170.15 3115.42 170.15 3115.42 177.47 3113.86 177.47 3113.86 161 3096.35 161 3096.35 194.72 3094.67 196.16 3094.67 175.44 3086.17 175.44 3086.17 164.06 3079.57 164.06 3079.57 173.39 3073.67 173.39 3073.67 147.21 3060.69 136.04 3050.79 144.57 3050.79 162.13 3034.2 162.13 3034.2 186.8 3027.66 186.8 3027.66 180.71 3019.17 180.71 3019.17 164.87 3007.65 164.87 3007.65 147.45 3000.31 147.45 3000.31 164.87 2980.47 164.87 2980.47 153.5 2971.52 153.5 2971.52 164.06 2964.89 164.06 2964.89 213.22 2954.99 204.68 2947.2 204.68 2947.2 173.43 2937.6 173.43 2937.6 196.16 2936.59 196.16 2936.59 203.87 2929.02 203.87 2929.02 198.2 2924.77 196.16 2924.77 167.71 2918.64 167.71 2918.64 159.19 2914.87 159.19 2914.87 168.95 2911.05 168.95 2911.05 162.13 2899.3 162.13 2899.3 151.88 2894.1 151.88 2894.1 144.98 2886.07 144.98 2886.07 139.29 2878.07 139.29 2878.07 144.98 2873.59 144.98 2873.59 205.7 2862.97 196.56 2862.97 165.28 2858.24 165.28 2858.24 157.55 2852.12 157.55 2852.12 163.25 2851.73 163.25 2851.73 150.84 2836.48 150.84 2836.48 190.87 2829.92 190.87 2829.92 180.71 2828.99 180.71 2828.99 144.7 2820.09 144.7 2820.09 114.12 2807.66 114.12 2807.66 144.7 2795.89 144.7 2795.89 176.66 2790.29 176.66 2790.29 159.6 2770.49 159.6 2770.49 176.66 2763.87 176.66 2763.87 151.69 2760.21 151.69 2760.21 127.67 2743.26 127.67 2743.26 144.77 2741.92 144.77 2737.9 148.22 2734.22 148.22 2734.22 107.34 2721.87 107.34 2721.87 87.65 2709.59 87.65 2707.24 65.71 2707.24 97.79 2700.75 97.79 2700.75 108.05 2697.57 110.79 2697.57 159 2693.55 162.44 2689.77 159.19 2689.77 155.13 2684.12 155.13 2684.12 152.7 2678.92 152.7 2678.92 148.64 2676.6 148.64 2676.6 137.84 2666.43 137.84 2666.43 155.13 2664.77 155.13 2664.77 160.82 2659.11 160.82 2659.11 155.94 2655.32 152.7 2655.32 142.95 2649.67 142.95 2649.67 145.79 2646.37 145.79 2646.37 123.14 2644.96 123.14 2644.96 94.91 2617.85 94.91 2617.85 123.44 2606.24 123.44 2606.24 129.13 2604.29 129.13 2604.29 105.08 2589.29 105.08 2589.29 93.7 2586.63 93.7 2586.63 105.08 2560.22 105.08 2543.28 105.08 2543.28 128.33 2535.47 128.33 2535.47 136.85 2525.09 136.85 2525.09 127.5 2506.67 127.5 2500.34 132.97 2500.34 94.91 2486.78 94.91 2486.78 134.41 2475.07 134.41 2475.07 130.76 2466.59 130.76 2466.59 48.03 2466.47 48.03 2466.47 45.04 2459.47 45.04 2459.47 26.26 2450.63 26.26 2450.63 0 2437.07 0 2437.07 26.26 2425.04 26.26 2425.04 45.04 2419.03 45.04 2419.03 144.16 2413.24 144.16 2413.24 121.03 2407.57 107.21 2401.44 119.38 2381.71 119.38 2381.71 82.48 2359.11 82.48 2359.11 133.19 2353.3 133.19 2353.3 138.9 2345.76 138.9 2345.76 122.62 2341.59 122.62 2341.59 94.77 2325.7 94.77 2325.7 122.62 2324.99 122.62 2315.57 125.48 2315.57 141.73 2305.17 141.73 2305.17 151.07 2298.57 151.07 2298.57 120.2 2287.97 120.2 2287.97 128.11 2283.41 132.03 2283.41 75.7 2258.55 75.7 2258.55 136.85 2241.01 136.85 2241.01 128.72 2238.21 128.72 2238.21 93.43 2215.04 93.43 2215.04 57.31 2207.81 57.31 2207.81 35.29 2201.21 35.29 2201.21 18.29 2190.61 18.29 2190.61 35.29 2185.31 35.29 2185.31 57.31 2178.24 57.31 2178.24 63.27 2156.86 63.27 2156.86 115.73 2148.95 115.73 2148.95 88.13 2126.36 88.13 2126.36 110.06 2114.53 110.06 2114.53 103.15 2110.74 103.15 2110.74 111.27 2096.6 111.27 2096.6 125.48 2090 130.9 2090.12 159.6 2079.4 159.6 2079.4 170.15 2070.42 170.15 2070.42 177.47 2068.86 177.47 2068.86 161 2051.35 161 2051.35 194.72 2049.67 196.16 2049.67 175.44 2041.17 175.44 2041.17 164.06 2034.57 164.06 2034.57 173.39 2028.67 173.39 2028.67 147.21 2015.69 136.04 2005.79 144.57 2005.79 162.13 1989.2 162.13 1989.2 186.8 1982.66 186.8 1982.66 180.71 1974.17 180.71 1974.17 164.87 1962.65 164.87 1962.65 147.45 1955.31 147.45 1955.31 164.87 1935.47 164.87 1935.47 153.5 1926.52 153.5 1926.52 164.06 1919.89 164.06 1919.89 213.22 1909.99 204.68 1902.2 204.68 1902.2 173.43 1892.6 173.43 1892.6 196.16 1891.59 196.16 1891.59 203.87 1884.02 203.87 1884.02 198.2 1879.77 196.16 1879.77 167.71 1873.64 167.71 1873.64 159.19 1869.87 159.19 1869.87 168.95 1866.05 168.95 1866.05 162.13 1854.3 162.13 1854.3 151.88 1849.1 151.88 1849.1 144.98 1841.07 144.98 1841.07 139.29 1833.07 139.29 1833.07 144.98 1828.59 144.98 1828.59 205.7 1817.97 196.56 1817.97 165.28 1813.24 165.28 1813.24 157.55 1807.12 157.55 1807.12 163.25 1806.73 163.25 1806.73 150.84 1791.48 150.84 1791.48 190.87 1784.92 190.87 1784.92 180.71 1783.99 180.71 1783.99 144.7 1775.09 144.7 1775.09 114.12 1762.66 114.12 1762.66 144.7 1750.89 144.7 1750.89 176.66 1745.29 176.66 1745.29 159.6 1725.49 159.6 1725.49 176.66 1718.87 176.66 1718.87 151.69 1715.21 151.69 1715.21 127.67 1698.26 127.67 1698.26 144.77 1696.92 144.77 1692.9 148.22 1689.22 148.22 1689.22 107.34 1676.87 107.34 1676.87 87.65 1664.59 87.65 1662.24 65.71 1662.24 97.79 1655.75 97.79 1655.75 108.05 1652.57 110.79 1652.57 159 1648.55 162.44 1644.77 159.19 1644.77 155.13 1639.12 155.13 1639.12 152.7 1633.92 152.7 1633.92 148.64 1631.6 148.64 1631.6 137.84 1621.43 137.84 1621.43 155.13 1619.77 155.13 1619.77 160.82 1614.12 160.82 1614.12 155.94 1610.32 152.7 1610.32 142.95 1604.67 142.95 1604.67 145.79 1601.37 145.79 1601.37 123.14 1599.96 123.14 1599.96 94.91 1572.85 94.91 1572.85 123.44 1561.24 123.44 1561.24 129.13 1559.29 129.13 1559.29 105.08 1544.29 105.08 1544.29 93.7 1541.63 93.7 1541.63 105.08 1515.22 105.08 1498.28 105.08 1498.28 128.33 1490.47 128.33 1490.47 136.85 1480.09 136.85 1480.09 127.5 1461.67 127.5 1455.34 132.97 1455.34 94.91 1441.78 94.91 1441.78 134.41 1430.07 134.41 1430.07 130.76 1421.59 130.76 1421.59 48.03 1421.47 48.03 1421.47 45.04 1414.47 45.04 1414.47 26.26 1405.63 26.26 1405.63 0 1392.07 0 1392.07 26.26 1380.04 26.26 1380.04 45.04 1374.03 45.04 1374.03 144.16 1368.24 144.16 1368.24 121.03 1362.57 107.21 1356.44 119.38 1336.71 119.38 1336.71 82.48 1314.11 82.48 1314.11 133.19 1308.3 133.19 1308.3 138.9 1300.77 138.9 1300.77 122.62 1296.59 122.62 1296.59 94.77 1280.7 94.77 1280.7 122.62 1279.99 122.62 1270.57 125.48 1270.57 141.73 1260.17 141.73 1260.17 151.07 1253.57 151.07 1253.57 120.2 1242.97 120.2 1242.97 128.11 1238.41 132.03 1238.41 75.7 1213.55 75.7 1213.55 136.85 1196.01 136.85 1196.01 128.72 1193.21 128.72 1193.21 93.43 1170.04 93.43 1170.04 57.31 1162.81 57.31 1162.81 35.29 1156.21 35.29 1156.21 18.29 1145.61 18.29 1145.61 35.29 1140.31 35.29 1140.31 57.31 1133.24 57.31 1133.24 63.27 1111.86 63.27 1111.86 115.73 1103.95 115.73 1103.95 88.13 1081.36 88.13 1081.36 110.06 1069.54 110.06 1069.54 103.15 1065.74 103.15 1065.74 111.27 1051.6 111.27 1051.6 125.48 1045 130.9 1045.12 159.6 1034.4 159.6 1034.4 170.15 1025.42 170.15 1025.42 177.47 1023.86 177.47 1023.86 161 1006.35 161 1006.35 194.72 1004.67 196.16 1004.67 175.44 996.17 175.44 996.17 164.06 989.57 164.06 989.57 173.39 983.67 173.39 983.67 147.21 970.69 136.04 960.79 144.57 960.79 162.13 944.2 162.13 944.2 186.8 937.66 186.8 937.66 180.71 929.17 180.71 929.17 164.87 917.65 164.87 917.65 147.45 910.31 147.45 910.31 164.87 890.47 164.87 890.47 153.5 881.52 153.5 881.52 164.06 874.89 164.06 874.89 213.22 864.99 204.68 857.2 204.68 857.2 173.43 847.6 173.43 847.6 196.16 846.59 196.16 846.59 203.87 839.02 203.87 839.02 198.2 834.77 196.16 834.77 167.71 828.64 167.71 828.64 159.19 824.87 159.19 824.87 168.95 821.05 168.95 821.05 162.13 809.29 162.13 809.29 151.88 804.1 151.88 804.1 144.98 796.07 144.98 796.07 139.29 788.07 139.29 788.07 144.98 783.59 144.98 783.59 205.7 772.97 196.56 772.97 165.28 768.25 165.28 768.25 157.55 762.12 157.55 762.12 163.25 761.73 163.25 761.73 150.84 746.48 150.84 746.48 190.87 739.92 190.87 739.92 180.71 738.99 180.71 738.99 144.7 730.09 144.7 730.09 114.12 717.66 114.12 717.66 144.7 705.89 144.7 705.89 176.66 700.29 176.66 700.29 159.6 680.49 159.6 680.49 176.66 673.87 176.66 673.87 151.69 670.21 151.69 670.21 127.67 653.26 127.67 653.26 144.77 651.92 144.77 647.9 148.22 644.22 148.22 644.22 107.34 631.87 107.34 631.87 87.65 619.59 87.65 617.24 65.71 617.24 97.79 610.75 97.79 610.75 108.05 607.57 110.79 607.57 159 603.55 162.44 599.77 159.19 599.77 155.13 594.12 155.13 594.12 152.7 588.92 152.7 588.92 148.64 586.6 148.64 586.6 137.84 576.43 137.84 576.43 155.13 574.77 155.13 574.77 160.82 569.12 160.82 569.12 155.94 565.32 152.7 565.32 142.95 559.67 142.95 559.67 145.79 556.37 145.79 556.37 123.14 554.96 123.14 554.96 94.91 527.85 94.91 527.85 123.44 516.24 123.44 516.24 129.13 514.29 129.13 514.29 105.08 499.29 105.08 499.29 93.7 496.63 93.7 496.63 105.08 470.23 105.08 453.28 105.08 453.28 128.33 445.47 128.33 445.47 136.85 435.09 136.85 435.09 127.5 416.67 127.5 410.34 132.97 410.34 94.91 396.78 94.91 396.78 134.41 385.07 134.41 385.07 130.76 376.59 130.76 376.59 48.03 376.47 48.03 376.47 45.04 369.47 45.04 369.47 26.26 360.63 26.26 360.63 0 347.07 0 347.07 26.26 335.04 26.26 335.04 45.04 329.03 45.04 329.03 144.16 323.24 144.16 323.24 121.03 317.57 107.21 311.44 119.38 291.71 119.38 291.71 82.48 269.11 82.48 269.11 133.19 263.3 133.19 263.3 138.9 255.76 138.9 255.76 122.62 251.59 122.62 251.59 94.77 235.7 94.77 235.7 122.62 234.99 122.62 225.57 125.48 225.57 141.73 215.17 141.73 215.17 151.07 208.57 151.07 208.57 120.2 197.97 120.2 197.97 128.11 193.41 132.03 193.41 75.7 168.55 75.7 168.55 136.85 151.01 136.85 151.01 128.72 148.21 128.72 148.21 93.43 125.04 93.43 125.04 57.31 117.81 57.31 117.81 35.29 111.21 35.29 111.21 18.29 100.61 18.29 100.61 35.29 95.31 35.29 95.31 57.31 88.24 57.31 88.24 63.27 66.86 63.27 66.86 115.73 58.95 115.73 58.95 88.13 36.36 88.13 36.36 110.06 24.54 110.06 24.54 103.15 20.74 103.15 20.74 111.27 6.6 111.27 6.6 125.48 0 130.9 0.5 250 1045.5 250 1046.67 250 2090.5 250 2091.67 250 3126.5 250 3136.67 250 4172.67 250 4172.67 159.6 4160.4 159.6"/></g></g></svg>