<svg xmlns="http://www.w3.org/2000/svg" viewBox="0 0 237.37 400"><defs><style>.cls-1{fill:#002f49;}</style></defs><title>Asset 10</title><g id="Layer_2" data-name="Layer 2"><g id="Layer_1-2" data-name="Layer 1"><g id="_Group_" data-name="&lt;Group&gt;"><rect id="_Path_" data-name="&lt;Path&gt;" class="cls-1" x="61.31" y="288.76" width="3.05" height="7.47"/><rect id="_Path_2" data-name="&lt;Path&gt;" class="cls-1" x="69.98" y="288.76" width="3.05" height="7.47"/><rect id="_Path_3" data-name="&lt;Path&gt;" class="cls-1" x="78.64" y="288.76" width="3.05" height="7.47"/><rect id="_Path_4" data-name="&lt;Path&gt;" class="cls-1" x="87.31" y="288.76" width="3.05" height="7.47"/><rect id="_Path_5" data-name="&lt;Path&gt;" class="cls-1" x="95.97" y="288.76" width="3.05" height="7.47"/><rect id="_Path_6" data-name="&lt;Path&gt;" class="cls-1" x="103.43" y="288.76" width="3.05" height="7.47"/><rect id="_Path_7" data-name="&lt;Path&gt;" class="cls-1" x="113.3" y="288.76" width="3.05" height="7.47"/><rect id="_Path_8" data-name="&lt;Path&gt;" class="cls-1" y="390.35" width="54.46" height="9.65"/><rect id="_Path_9" data-name="&lt;Path&gt;" class="cls-1" x="182.91" y="390.35" width="54.46" height="9.65"/><g id="_Group_2" data-name="&lt;Group&gt;"><rect id="_Path_10" data-name="&lt;Path&gt;" class="cls-1" x="118.19" y="323.63" width="0.99" height="3.3"/></g><g id="_Group_3" data-name="&lt;Group&gt;"><rect id="_Path_11" data-name="&lt;Path&gt;" class="cls-1" x="111.77" y="323.63" width="0.99" height="3.64"/></g><g id="_Group_4" data-name="&lt;Group&gt;"><rect id="_Path_12" data-name="&lt;Path&gt;" class="cls-1" x="105.35" y="323.63" width="0.99" height="4.22"/></g><g id="_Group_5" data-name="&lt;Group&gt;"><rect id="_Path_13" data-name="&lt;Path&gt;" class="cls-1" x="98.93" y="323.63" width="0.99" height="5.28"/></g><g id="_Group_6" data-name="&lt;Group&gt;"><rect id="_Path_14" data-name="&lt;Path&gt;" class="cls-1" x="92.51" y="323.63" width="0.99" height="6.79"/></g><g id="_Group_7" data-name="&lt;Group&gt;"><rect id="_Path_15" data-name="&lt;Path&gt;" class="cls-1" x="86.09" y="323.63" width="0.99" height="9.28"/></g><g id="_Group_8" data-name="&lt;Group&gt;"><rect id="_Path_16" data-name="&lt;Path&gt;" class="cls-1" x="79.67" y="323.63" width="0.99" height="12.19"/></g><polygon id="_Path_17" data-name="&lt;Path&gt;" class="cls-1" points="149.2 208.46 118.69 208.46 88.17 208.46 88.17 214.96 93.15 214.96 91.45 220.14 104.33 220.14 109.7 220.14 118.69 220.14 118.69 220.14 127.67 220.14 133.04 220.14 145.92 220.14 144.22 214.96 149.2 214.96 149.2 208.46"/><polygon id="_Path_18" data-name="&lt;Path&gt;" class="cls-1" points="148.83 228.99 134.72 228.99 129.22 228.99 118.69 228.99 118.69 228.99 108.15 228.99 102.65 228.99 88.54 228.99 87.09 233.38 102.65 233.38 107.37 233.38 118.69 233.38 118.69 233.38 130 233.38 134.72 233.38 150.28 233.38 148.83 228.99"/><polygon id="_Path_19" data-name="&lt;Path&gt;" class="cls-1" points="118.69 284.68 60.11 284.68 60.11 288.76 118.69 288.76 177.26 288.76 177.26 284.68 118.69 284.68"/><polygon id="_Path_20" data-name="&lt;Path&gt;" class="cls-1" points="118.69 296.24 60.11 296.24 60.11 303.71 118.69 303.71 177.26 303.71 177.26 296.24 118.69 296.24"/><rect id="_Path_21" data-name="&lt;Path&gt;" class="cls-1" x="173.01" y="288.76" width="3.05" height="7.47"/><rect id="_Path_22" data-name="&lt;Path&gt;" class="cls-1" x="164.34" y="288.76" width="3.05" height="7.47"/><rect id="_Path_23" data-name="&lt;Path&gt;" class="cls-1" x="155.68" y="288.76" width="3.05" height="7.47"/><rect id="_Path_24" data-name="&lt;Path&gt;" class="cls-1" x="147.01" y="288.76" width="3.05" height="7.47"/><rect id="_Path_25" data-name="&lt;Path&gt;" class="cls-1" x="138.35" y="288.76" width="3.05" height="7.47"/><rect id="_Path_26" data-name="&lt;Path&gt;" class="cls-1" x="130.89" y="288.76" width="3.05" height="7.47"/><rect id="_Path_27" data-name="&lt;Path&gt;" class="cls-1" x="121.02" y="288.76" width="3.05" height="7.47"/><path id="_Path_28" data-name="&lt;Path&gt;" class="cls-1" d="M178.15,306.6H59.22c-2.67,4.8-5.95,10.45-9.94,17H188.09C184.1,317.05,180.82,311.4,178.15,306.6Z"/><path id="_Path_29" data-name="&lt;Path&gt;" class="cls-1" d="M168.55,359.37c-11.48-16.59-24.36-27.14-37.78-31.11,26,3.45,39.51,17.09,39.66,17.24l.72-.68c-.19-.19-4.55-4.66-13.23-9.19a84.64,84.64,0,0,0-39.24-9.15c-34.34,0-52.28,18.15-52.46,18.34l.71.68c.16-.15,13.65-13.8,39.68-17.24-13.43,4-26.31,14.52-37.79,31.11a163.78,163.78,0,0,0-17.31,32.79l.93.34c.24-.66,24.14-65,66.24-65s66,64.36,66.24,65l.93-.34A162.81,162.81,0,0,0,168.55,359.37Z"/><g id="_Group_9" data-name="&lt;Group&gt;"><rect id="_Path_30" data-name="&lt;Path&gt;" class="cls-1" x="118.19" y="323.63" width="0.99" height="3.3"/></g><g id="_Group_10" data-name="&lt;Group&gt;"><rect id="_Path_31" data-name="&lt;Path&gt;" class="cls-1" x="124.61" y="323.63" width="0.99" height="3.64"/></g><g id="_Group_11" data-name="&lt;Group&gt;"><rect id="_Path_32" data-name="&lt;Path&gt;" class="cls-1" x="131.03" y="323.63" width="0.99" height="4.22"/></g><g id="_Group_12" data-name="&lt;Group&gt;"><rect id="_Path_33" data-name="&lt;Path&gt;" class="cls-1" x="137.45" y="323.63" width="0.99" height="5.28"/></g><g id="_Group_13" data-name="&lt;Group&gt;"><rect id="_Path_34" data-name="&lt;Path&gt;" class="cls-1" x="143.87" y="323.63" width="0.99" height="6.79"/></g><g id="_Group_14" data-name="&lt;Group&gt;"><rect id="_Path_35" data-name="&lt;Path&gt;" class="cls-1" x="150.29" y="323.63" width="0.99" height="9.28"/></g><g id="_Group_15" data-name="&lt;Group&gt;"><rect id="_Path_36" data-name="&lt;Path&gt;" class="cls-1" x="156.71" y="323.63" width="0.99" height="12.19"/></g><g id="_Group_16" data-name="&lt;Group&gt;"><path id="_Compound_Path_" data-name="&lt;Compound Path&gt;" class="cls-1" d="M108.46,230.05l-4.52-4.86-5.85,4.49L94.5,225l-5.66,4.41-.61-.78,5.67-4.42-2.85-3.74.79-.6,2.85,3.74,5.27-4.11,4.09,4.39,6.36-4.88Zm-13.17-5.68,3,3.92,5-3.83-3.4-3.65Zm9.44.22,3.1,3.33,1.16-6.61Z"/></g><g id="_Group_17" data-name="&lt;Group&gt;"><path id="_Compound_Path_2" data-name="&lt;Compound Path&gt;" class="cls-1" d="M128.61,230.05l-2-11.07,6.37,4.88,4.08-4.39,5.28,4.11,2.84-3.74.79.6-2.85,3.74,5.67,4.42-.61.78L142.57,225,139,229.68l-5.84-4.49Zm5.2-5.59,5,3.83,3-3.92-4.57-3.56Zm-5.73-3.15,1.16,6.61,3.11-3.33Z"/></g><g id="_Group_18" data-name="&lt;Group&gt;"><path id="_Compound_Path_3" data-name="&lt;Compound Path&gt;" class="cls-1" d="M129.94,230.24l-6.38-5.36-4.88,4.8-4.87-4.8-5.34,4.49-.64-.76,5.27-4.43-3.74-3.68.69-.71,3.81,3.75,4.82-4,4.83,4,4.48-4.41Zm-15.37-6,4.11,4,4.12-4-4.12-3.45Zm9.7-.06,4.23,3.55-1.16-6.57Z"/></g><path id="_Compound_Path_4" data-name="&lt;Compound Path&gt;" class="cls-1" d="M141.6,208.58l-.49-1.47-7.43-4.63,5.48-4.52c-.13-.68-.26-1.37-.38-2.06l-7.14-5.3,5.34-5c-.12-.72-.24-1.46-.35-2.19L130,177.89l5.06-5.2c-.11-.76-.22-1.52-.32-2.28L128.51,165l4.81-5.12c-.1-.77-.19-1.54-.29-2.31l-5.76-5.12,4.6-4.9c-.09-.78-.18-1.56-.26-2.34l-5.45-5.07,4.42-4.88c-.08-.77-.16-1.55-.23-2.32l-5-4.5,4.2-4.22-.21-2.37-4.58-4.61,3.83-4.2c-.07-.81-.13-1.61-.2-2.42l-4-3.68,3.46-3.41q-.09-1.23-.18-2.43L124,97.5l3.16-3.36c-.06-.81-.11-1.62-.17-2.43l-3.3-3.17,2.9-3q-.09-1.18-.15-2.37l-3-3,2.67-2.82c0-.8-.09-1.59-.14-2.37l-2.75-2.64,2.46-2.49c0-.78-.09-1.55-.13-2.31L123,65.2,125.26,63c0-.8-.08-1.59-.11-2.36l-2.33-2.22,2.11-2.13c0-.77-.07-1.53-.1-2.27l-2.14-1.9,2-1.82c0-.78-.07-1.54-.1-2.26l-2-1.87,1.86-1.79c0-.56,0-1.09-.06-1.61h-5.17v1.63l1.93,1.79L119.18,48v2.27l2,1.81-2,1.9v2.29l2.22,2.12-2.22,2.23V63l2.39,2.22-2.39,2.33v2.33l2.58,2.48L119.18,75v2.4L122,80.19l-2.83,3v2.41l3.09,3-3.09,3.19v2.4l3.42,3.38-3.42,3.64v2.38l3.75,3.44-3.75,3.7v2.39l4.19,4.21-4.19,4.59v2.39l4.72,4.23L119.41,133c0,.7.09,1.48.14,2.34l5.22,4.86-4.58,5.05c0,.77.1,1.57.16,2.38l5.5,4.88-4.8,5.12c.06.77.11,1.55.17,2.33l5.87,5.11L122,170.48l.18,2.29,6.29,5.2-5.36,5.52.21,2.18,6.75,5L124.41,196c.08.68.16,1.35.24,2l7.34,4.58-6,4.95c.06.28.11.56.16.82l0,.3,6.67-5.52ZM120,43.75h3.68l-1.81,1.74Zm1.89,3.1,2,1.86h-3.93ZM120,49.7h3.85L122,51.45Zm2,3.08,2.1,1.87H120Zm-2,2.86h4.25l-2.07,2.08Zm2.2,3.47,2.36,2.25h-4.6Zm-2.18,3.24h4.56l-2.23,2.18Zm2.35,3.55,2.5,2.33H119.9Zm-2.37,3.32h4.94l-2.4,2.44Zm2.56,3.83,2.76,2.65h-5.37Zm-2.59,3.64h5.43l-2.63,2.78Zm2.82,4.2,3.06,3h-5.94Zm-2.8,4h5.89L123,87.85ZM123,89.25l3.36,3.22h-6.49Zm-3.09,4.21h6.53l-3.14,3.35Zm3.41,4.77,3.75,3.7h-7.22ZM120,102.92h7.09l-3.42,3.37Zm3.7,4.74,4,3.72h-7.82Zm-3.78,4.71h8L124,116.56Zm4.19,5.62,4.64,4.67h-8.9ZM120,123.65h8.73l-4.11,4.15Zm4.66,5.51,5,4.49h-9.47Zm-4.4,5.49h9.58l-4.38,4.83Zm5.26,6.24L131,146H120.89ZM121.07,147h10l-4.55,4.84Zm5.52,6.22,5.77,5.13H121.78ZM122,159.31h10.56l-4.76,5.06Zm5.87,6.43,6.2,5.4H122.76ZM123,172.13h11.19l-5,5.13Zm6.28,6.47,6.66,5.51h-12Zm-5,6.5h11.82l-5.23,4.9Zm6.66,6.19,7.09,5.26H125.28Zm-5.14,6.25h12.35l-5.32,4.39Z"/><path id="_Compound_Path_5" data-name="&lt;Compound Path&gt;" class="cls-1" d="M166.67,284.74a1.77,1.77,0,0,1-.06-.17l-.44-1.31-14.49-9.12,8.71-8.46-.67-2.05-13.05-8.12,8-7.33-.64-1.94-11.27-6.31L150,234.2l-.43-1.31H130.42c.08.47.17,1,.26,1.44l10.26,5.74-8.07,6.33.36,1.91L145,255.66l-8.86,8.15c.14.67.27,1.34.4,2l13.51,8.49-9.7,9.42c.07.28.13.57.2.85,0,0,0,.1.1.23L151,274.85ZM131.9,233.88h16.95l-7.06,5.53Zm10,6.72L153,246.8H134Zm-7.62,7.19h19.33l-7.8,7.18Zm11.65,8.42,13,8.07H137.14Zm-8.33,9.06h21.81l-8.57,8.33Z"/><path id="_Compound_Path_6" data-name="&lt;Compound Path&gt;" class="cls-1" d="M199.65,389.85h.73l7.79-10.5,22.06,10.5h1.23l-.54-.76-22.15-10.55,7.65-10.32L215,366.13l-21.14-10.3L201.6,346l-1.32-2-19.83-10,7.6-9.45-.82-1.34h-28l.88,1.65,18.79,9.48-8,10c.39.68.78,1.37,1.18,2.05l20.27,9.87-8.1,10.32,1.29,2.05,21.75,10.35-7.85,10.59ZM161,324.13h26.06l-7.52,9.35Zm18.81,10.59,19.71,9.94h-27.7Zm-6.87,10.93h27.65L193,355.39Zm20.29,11,21.06,10.25h-29.1Zm-6.87,11.24h29.09l-7.59,10.23Z"/><path id="_Compound_Path_7" data-name="&lt;Compound Path&gt;" class="cls-1" d="M118,133l-4.49-4.52,4.72-4.23v-2.39L114,117.29l4.19-4.22v-2.38l-3.75-3.7,3.75-3.44v-2.38l-3.42-3.64,3.42-3.38v-2.4l-3.09-3.19,3.09-3V83.18l-2.83-3,2.83-2.81V75l-2.58-2.63,2.58-2.48V67.55l-2.39-2.33L118.19,63V60.66L116,58.43l2.22-2.12V54l-2-1.9,2-1.81V48l-1.93-1.86,1.93-1.79V42.76H113c0,.52,0,1.05-.06,1.61l1.86,1.79-2,1.87c0,.73-.07,1.48-.1,2.26l2,1.82L112.54,54c0,.74-.07,1.5-.1,2.27l2.11,2.13-2.33,2.22q0,1.15-.12,2.37l2.27,2.2-2.5,2.34c0,.76-.09,1.53-.13,2.31l2.46,2.49L111.45,75c0,.78-.09,1.57-.14,2.37L114,80.17l-3,3q-.06,1.18-.15,2.37l2.9,3-3.3,3.17c-.06.81-.11,1.62-.17,2.43l3.16,3.36-3.66,3.62q-.09,1.2-.18,2.43L113,107l-4,3.68c-.07.81-.13,1.61-.2,2.43l3.83,4.19-4.58,4.61-.21,2.37,4.2,4.22L107,133c-.07.78-.15,1.56-.23,2.34l4.42,4.87-5.45,5.06c-.08.79-.17,1.57-.25,2.35l4.59,4.9-5.76,5.12c-.09.77-.19,1.54-.28,2.31l4.8,5.12-6.18,5.39c-.11.76-.22,1.52-.32,2.29l5,5.19-6.66,5.51-.36,2.2,5.34,5-7.13,5.3L98.21,198l5.48,4.52-7.44,4.64-.48,1.46,8.72-5.44,6.68,5.51,0-.28.15-.83-6-4.95,7.34-4.58c.08-.65.16-1.32.24-2l-5.69-5.32,6.75-5,.21-2.18L108.86,178l6.3-5.2.18-2.29-5.06-5.39,5.87-5.11c.06-.78.11-1.56.17-2.33l-4.8-5.12,5.5-4.88c0-.81.11-1.61.16-2.38l-4.58-5.05,5.22-4.86C117.87,134.5,117.92,133.72,118,133Zm-4.22-89.27h3.68l-1.88,1.74Zm1.79,3.1,1.93,1.86h-3.93Zm-2,2.85h3.85l-2,1.75Zm1.88,3.08,2,1.87H113.3Zm-2.21,2.86h4.25l-2.18,2.08Zm2,3.47,2.24,2.25h-4.6Zm-2.38,3.24h4.56l-2.33,2.18Zm2.21,3.55,2.39,2.33h-4.89Zm-2.57,3.32h4.94l-2.54,2.44Zm2.38,3.83,2.61,2.65h-5.37Zm-2.84,3.64h5.43l-2.8,2.78Zm2.61,4.2,2.88,3H111.6Zm-3.09,4h5.89l-3,2.93Zm2.82,4.33,3.12,3.22H111ZM111,93.46h6.53l-3.39,3.35Zm3.11,4.77,3.48,3.7h-7.22Zm-3.74,4.69h7.09l-3.67,3.37Zm3.39,4.74,3.77,3.72h-7.82Zm-4.2,4.71h8l-4.16,4.19ZM113.3,118l4.26,4.67h-8.9Zm-4.64,5.66h8.73l-4.62,4.15Zm4.07,5.51,4.47,4.49h-9.47Zm-8.15,72.77-5.32-4.39h12.35Zm7.51-5.38H99.38l7.09-5.26ZM106.54,190l-5.23-4.9h11.82Zm6.91-5.89h-12l6.66-5.51Zm-5.28-6.85-5-5.13h11.18Zm6.44-6.12H103.34l6.2-5.4Zm-5-6.77-4.76-5.06h10.56Zm6-6.05H105l5.77-5.13Zm-4.75-6.51L106.29,147h10Zm5.64-5.83H106.41l5.46-5.09Zm-4.55-6.5-4.38-4.83h9.58Z"/><path id="_Compound_Path_8" data-name="&lt;Compound Path&gt;" class="cls-1" d="M107,232.89H87.77l-.43,1.31,7.31,5.73-11.27,6.31-.64,1.94,8,7.33-13,8.12L77,265.68l8.71,8.46L71.2,283.26l-.43,1.3-.07.18,15.72-9.89,10.25,9.95a2.67,2.67,0,0,0,.13-.31c.06-.25.13-.51.19-.77l-9.71-9.42,13.52-8.5c.13-.65.26-1.32.39-2l-8.86-8.15,11.81-7.35.36-1.91-8.07-6.33,10.26-5.74C106.78,233.84,106.87,233.36,107,232.89Zm-20.4,40.7L78,265.27h21.8Zm13.68-9.31H78.49l13-8.08ZM91.58,255l-7.8-7.18H103.1Zm11.82-8.17h-19l11.08-6.2Zm-7.82-7.39-7.06-5.53h17Z"/><path id="_Compound_Path_9" data-name="&lt;Compound Path&gt;" class="cls-1" d="M78.13,323.14h-28l-.82,1.34,7.6,9.45-19.83,10-1.32,2,7.74,9.86-21.14,10.3L21,368.22l7.65,10.32L6.45,389.09c-.19.25-.36.5-.54.76H7.14l22.06-10.5L37,389.85h.73l.24-.35-7.85-10.59,21.75-10.35,1.29-2.05-8.1-10.32,20.27-9.87c.4-.68.79-1.37,1.18-2.05l-8-10,18.79-9.48C77.55,324.24,77.84,323.68,78.13,323.14Zm-48.62,55-7.59-10.23H51Zm22.67-11.22H23.08l21.06-10.25Zm-7.76-11.49-7.64-9.74H64.43Zm21.13-10.73H37.85l19.71-9.94Zm-7.72-11.18-7.52-9.35H76.37Z"/><g id="_Group_19" data-name="&lt;Group&gt;"><path id="_Path_37" data-name="&lt;Path&gt;" class="cls-1" d="M88,303.71a653.4,653.4,0,0,1-50.25,86.14H5.91c28.32-40,45.81-68.49,55.5-86.14H60.23c-9,16.37-25.67,44-55.68,86.35l-.56.78H38.23l.15-.21a653.5,653.5,0,0,0,50.68-86.92Z"/><path id="_Path_38" data-name="&lt;Path&gt;" class="cls-1" d="M69,288.76c.77-1.71,1.35-3.12,1.74-4.2l25.75-78.27c13.25-61.48,16.55-163.95,16.79-171.88h4.88v94.8c0,.61-3.53,61-7,79.16-.09.54-9,53.56-14.42,76.12,0,.09-.66,1.59-1.86,4.27H96c1.1-2.48,1.69-3.87,1.72-4,5.42-22.68,14.37-75.73,14.46-76.25,3.45-18.26,6.94-78.67,7-79.31V33.42h-6.83v.48c0,1.08-3.09,108.61-16.77,172.13L69.83,284.24c0,.06-.55,1.5-2,4.52Z"/></g><g id="_Group_20" data-name="&lt;Group&gt;"><path id="_Path_39" data-name="&lt;Path&gt;" class="cls-1" d="M232.82,390.06c-30-42.34-46.71-70-55.68-86.35H176c9.7,17.65,27.19,46.13,55.51,86.14H199.65a654.2,654.2,0,0,1-50.25-86.14h-1.1A655.21,655.21,0,0,0,199,390.63l.15.21h34.24Z"/><path id="_Path_40" data-name="&lt;Path&gt;" class="cls-1" d="M141.34,288.76h1.08c-1.18-2.64-1.8-4.12-1.83-4.19-5.41-22.64-14.35-75.66-14.44-76.21-3.45-18.19-6.94-78.54-7-79.12V34.41h4.88c.24,7.93,3.54,110.4,16.8,171.93l25.75,78.23c.38,1.08,1,2.49,1.73,4.19h1.15c-1.4-3-1.93-4.45-2-4.51l-25.73-78.17C128.12,142.51,125.06,35,125,33.9v-.48h-6.83v95.85c0,.61,3.53,61,7,79.27.09.53,9,53.58,14.48,76.33C139.68,285,140.26,286.32,141.34,288.76Z"/></g><g id="_Group_21" data-name="&lt;Group&gt;"><path id="_Compound_Path_10" data-name="&lt;Compound Path&gt;" class="cls-1" d="M125.75,34.28H111.66a3.57,3.57,0,0,1-3.57-3.56V23.64a3.57,3.57,0,0,1,3.57-3.57h14.09a3.57,3.57,0,0,1,3.57,3.57v7.08A3.57,3.57,0,0,1,125.75,34.28ZM111.66,21.06a2.59,2.59,0,0,0-2.58,2.58v7.08a2.58,2.58,0,0,0,2.58,2.57h14.09a2.58,2.58,0,0,0,2.58-2.57V23.64a2.59,2.59,0,0,0-2.58-2.58Z"/></g><rect id="_Path_41" data-name="&lt;Path&gt;" class="cls-1" x="108.59" y="24.97" width="20.24" height="4.41"/><g id="_Group_22" data-name="&lt;Group&gt;"><path id="_Compound_Path_11" data-name="&lt;Compound Path&gt;" class="cls-1" d="M124.65,21.06H112.76l0-.51a3.78,3.78,0,0,1,3.78-3.63h4.28a3.79,3.79,0,0,1,3.79,3.63Zm-10.81-1h9.73a2.79,2.79,0,0,0-2.73-2.16h-4.28A2.79,2.79,0,0,0,113.84,20.07Z"/></g><polygon id="_Path_42" data-name="&lt;Path&gt;" class="cls-1" points="119.35 0 118.7 0 118.06 0 116.56 17.41 118.7 17.41 118.7 17.41 120.84 17.41 119.35 0"/></g></g></g></svg>