<?xml version="1.0" encoding="UTF-8"?>
<svg width="100px" height="26px" viewBox="0 0 100 26" version="1.1" xmlns="http://www.w3.org/2000/svg" xmlns:xlink="http://www.w3.org/1999/xlink">
    <!-- Generator: Sketch 49.1 (51147) - http://www.bohemiancoding.com/sketch -->
    <title>Combined Shape</title>
    <desc>Created with Sketch.</desc>
    <defs>
        <linearGradient x1="100%" y1="50%" x2="0%" y2="50%" id="linearGradient-1">
            <stop stop-color="#4A4A4A" offset="0%"></stop>
            <stop stop-color="#000000" offset="100%"></stop>
        </linearGradient>
    </defs>
    <g id="Page-1" stroke="none" stroke-width="1" fill="none" fill-rule="evenodd">
        <path d="M0,0.627833973 L5.44122776,0.627833973 L5.44122776,20.2999651 L15.521451,20.2999651 L15.521451,25.3226369 L0,25.3226369 L0,0.627833973 Z M17.1956749,12.9752354 C17.1956749,10.9987112 17.5270284,9.20823962 18.1897454,7.603767 C18.8524623,5.99929438 19.7767642,4.63318783 20.9626788,3.50540635 C22.1485933,2.37762487 23.5553924,1.51145518 25.1831182,0.906871294 C26.8108441,0.302287408 28.5896892,0 30.519707,0 C32.4497248,0 34.2285699,0.302287408 35.8562958,0.906871294 C37.4840216,1.51145518 38.8908207,2.37762487 40.0767353,3.50540635 C41.2626498,4.63318783 42.1869517,5.99929438 42.8496686,7.603767 C43.5123856,9.20823962 43.8437391,10.9987112 43.8437391,12.9752354 C43.8437391,14.9517597 43.5123856,16.7422313 42.8496686,18.3467039 C42.1869517,19.9511765 41.2626498,21.317283 40.0767353,22.4450645 C38.8908207,23.572846 37.4840216,24.4390157 35.8562958,25.0435996 C34.2285699,25.6481835 32.4497248,25.9504709 30.519707,25.9504709 C28.5896892,25.9504709 26.8108441,25.6481835 25.1831182,25.0435996 C23.5553924,24.4390157 22.1485933,23.572846 20.9626788,22.4450645 C19.7767642,21.317283 18.8524623,19.9511765 18.1897454,18.3467039 C17.5270284,16.7422313 17.1956749,14.9517597 17.1956749,12.9752354 Z M22.8461807,12.9752354 C22.8461807,14.1378968 23.0263905,15.2017159 23.3868155,16.1667248 C23.7472405,17.1317337 24.264617,17.9688373 24.9389606,18.6780607 C25.6133042,19.3872841 26.4213416,19.9395399 27.3630973,20.3348448 C28.304853,20.7301496 29.3570457,20.9277991 30.519707,20.9277991 C31.6823683,20.9277991 32.734561,20.7301496 33.6763167,20.3348448 C34.6180724,19.9395399 35.4261099,19.3872841 36.1004534,18.6780607 C36.774797,17.9688373 37.2921735,17.1317337 37.6525985,16.1667248 C38.0130235,15.2017159 38.1932333,14.1378968 38.1932333,12.9752354 C38.1932333,11.8358273 38.0130235,10.7778214 37.6525985,9.80118591 C37.2921735,8.8245504 36.774797,7.98163359 36.1004534,7.27241018 C35.4261099,6.56318678 34.6180724,6.01093094 33.6763167,5.61562609 C32.734561,5.22032124 31.6823683,5.02267178 30.519707,5.02267178 C29.3570457,5.02267178 28.304853,5.22032124 27.3630973,5.61562609 C26.4213416,6.01093094 25.6133042,6.56318678 24.9389606,7.27241018 C24.264617,7.98163359 23.7472405,8.8245504 23.3868155,9.80118591 C23.0263905,10.7778214 22.8461807,11.8358273 22.8461807,12.9752354 Z M69.898849,23.5786536 C68.2943764,24.4157698 66.6201692,25.0203446 64.8761772,25.3923962 C63.1321852,25.7644479 61.3533401,25.9504709 59.5395884,25.9504709 C57.6095706,25.9504709 55.8307255,25.6481835 54.2029997,25.0435996 C52.5752738,24.4390157 51.1684747,23.572846 49.9825602,22.4450645 C48.7966456,21.317283 47.8723437,19.9511765 47.2096268,18.3467039 C46.5469098,16.7422313 46.2155563,14.9517597 46.2155563,12.9752354 C46.2155563,10.9987112 46.5469098,9.20823962 47.2096268,7.603767 C47.8723437,5.99929438 48.7966456,4.63318783 49.9825602,3.50540635 C51.1684747,2.37762487 52.5752738,1.51145518 54.2029997,0.906871294 C55.8307255,0.302287408 57.6095706,0 59.5395884,0 C61.5161127,0 63.3356503,0.238341995 64.998256,0.715033136 C66.6608617,1.19172428 68.1199798,2.01138821 69.375654,3.17404953 L65.5388908,7.35960935 C64.7947876,6.59225288 63.957684,6.01093094 63.0275549,5.61562609 C62.0974259,5.22032124 60.934782,5.02267178 59.5395884,5.02267178 C58.3769271,5.02267178 57.3247344,5.22032124 56.3829787,5.61562609 C55.4412231,6.01093094 54.6331856,6.56318678 53.958842,7.27241018 C53.2844984,7.98163359 52.7671219,8.8245504 52.4066969,9.80118591 C52.0462719,10.7778214 51.8660621,11.8358273 51.8660621,12.9752354 C51.8660621,14.1378968 52.0462719,15.2017159 52.4066969,16.1667248 C52.7671219,17.1317337 53.2844984,17.9688373 53.958842,18.6780607 C54.6331856,19.3872841 55.4412231,19.9395399 56.3829787,20.3348448 C57.3247344,20.7301496 58.3769271,20.9277991 59.5395884,20.9277991 C60.725503,20.9277991 61.7486296,20.794095 62.608999,20.5266829 C63.4693683,20.2592708 64.1553282,19.9860495 64.6668992,19.7070108 L64.6668992,15.6958493 L60.2371817,15.6958493 L60.2371817,10.6731775 L69.898849,10.6731775 L69.898849,23.5786536 Z M73.3519358,12.9752354 C73.3519358,10.9987112 73.6832893,9.20823962 74.3460063,7.603767 C75.0087232,5.99929438 75.9330251,4.63318783 77.1189397,3.50540635 C78.3048542,2.37762487 79.7116533,1.51145518 81.3393791,0.906871294 C82.967105,0.302287408 84.7459501,0 86.6759679,0 C88.6059857,0 90.3848308,0.302287408 92.0125567,0.906871294 C93.6402825,1.51145518 95.0470816,2.37762487 96.2329962,3.50540635 C97.4189107,4.63318783 98.3432126,5.99929438 99.0059295,7.603767 C99.6686465,9.20823962 100,10.9987112 100,12.9752354 C100,14.9517597 99.6686465,16.7422313 99.0059295,18.3467039 C98.3432126,19.9511765 97.4189107,21.317283 96.2329962,22.4450645 C95.0470816,23.572846 93.6402825,24.4390157 92.0125567,25.0435996 C90.3848308,25.6481835 88.6059857,25.9504709 86.6759679,25.9504709 C84.7459501,25.9504709 82.967105,25.6481835 81.3393791,25.0435996 C79.7116533,24.4390157 78.3048542,23.572846 77.1189397,22.4450645 C75.9330251,21.317283 75.0087232,19.9511765 74.3460063,18.3467039 C73.6832893,16.7422313 73.3519358,14.9517597 73.3519358,12.9752354 Z M82.3080056,12.9752354 C82.3080056,12.3272797 82.4166319,11.7403168 82.6338876,11.2143292 C82.8511434,10.6883416 83.1541535,10.2404965 83.5429269,9.87078058 C83.9317004,9.50106465 84.3928855,9.21711183 84.9264961,9.0189136 C85.4601067,8.82071537 86.0432582,8.72161774 86.6759679,8.72161774 C87.3086776,8.72161774 87.8918291,8.82071537 88.4254397,9.0189136 C88.9590503,9.21711183 89.4202355,9.50106465 89.8090089,9.87078058 C90.1977824,10.2404965 90.5007924,10.6883416 90.7180482,11.2143292 C90.9353039,11.7403168 91.0439302,12.3272797 91.0439302,12.9752354 C91.0439302,13.6231912 90.9353039,14.2101541 90.7180482,14.7361417 C90.5007924,15.2621293 90.1977824,15.7099744 89.8090089,16.0796903 C89.4202355,16.4494062 88.9590503,16.733359 88.4254397,16.9315573 C87.8918291,17.1297555 87.3086776,17.2288531 86.6759679,17.2288531 C86.0432582,17.2288531 85.4601067,17.1297555 84.9264961,16.9315573 C84.3928855,16.733359 83.9317004,16.4494062 83.5429269,16.0796903 C83.1541535,15.7099744 82.8511434,15.2621293 82.6338876,14.7361417 C82.4166319,14.2101541 82.3080056,13.6231912 82.3080056,12.9752354 Z M79.0024416,12.9752354 C79.0024416,14.1378968 79.1826514,15.2017159 79.5430764,16.1667248 C79.9035014,17.1317337 80.4208779,17.9688373 81.0952215,18.6780607 C81.7695651,19.3872841 82.5776025,19.9395399 83.5193582,20.3348448 C84.4611139,20.7301496 85.5133066,20.9277991 86.6759679,20.9277991 C87.8386292,20.9277991 88.8908219,20.7301496 89.8325776,20.3348448 C90.7743333,19.9395399 91.5823708,19.3872841 92.2567143,18.6780607 C92.9310579,17.9688373 93.4484344,17.1317337 93.8088594,16.1667248 C94.1692844,15.2017159 94.3494942,14.1378968 94.3494942,12.9752354 C94.3494942,11.8358273 94.1692844,10.7778214 93.8088594,9.80118591 C93.4484344,8.8245504 92.9310579,7.98163359 92.2567143,7.27241018 C91.5823708,6.56318678 90.7743333,6.01093094 89.8325776,5.61562609 C88.8908219,5.22032124 87.8386292,5.02267178 86.6759679,5.02267178 C85.5133066,5.02267178 84.4611139,5.22032124 83.5193582,5.61562609 C82.5776025,6.01093094 81.7695651,6.56318678 81.0952215,7.27241018 C80.4208779,7.98163359 79.9035014,8.8245504 79.5430764,9.80118591 C79.1826514,10.7778214 79.0024416,11.8358273 79.0024416,12.9752354 Z" id="Combined-Shape" fill="url(#linearGradient-1)"></path>
    </g>
</svg>