<svg xmlns="http://www.w3.org/2000/svg" xmlns:xlink="http://www.w3.org/1999/xlink" viewBox="0 0 118.82 149.46"><defs><style>.cls-1,.cls-2{fill:none;}.cls-1{clip-rule:evenodd;}.cls-3{fill:#85370d;}.cls-3,.cls-7,.cls-8{fill-rule:evenodd;}.cls-4{clip-path:url(#clip-path);}.cls-5{fill:#967a56;}.cls-6{clip-path:url(#clip-path-2);}.cls-7{fill:#a15827;}.cls-8{fill:#8b452f;}.cls-9{fill:#806a50;}.cls-10{fill:#5e5f61;}.cls-11{fill:#7b7d80;}.cls-12{fill:#3f3f40;}</style><clipPath id="clip-path"><path class="cls-1" d="M91.42,18.35,112,133.54l-52.67-.11-52.68-.1c7.45-41.94,14.24-78.6,21-115.1l21.42,0Z"/></clipPath><clipPath id="clip-path-2"><rect class="cls-2" x="-11.6" y="58.11" width="142.02" height="40.48" transform="translate(-19.05 137.61) rotate(-89.89)"/></clipPath></defs><title>Asset 15</title><g id="Layer_2" data-name="Layer 2"><g id="Layer_1-2" data-name="Layer 1"><path class="cls-3" d="M91.42,18.35,112,133.54l-52.67-.11-52.68-.1c7.45-41.94,14.24-78.6,21-115.1l21.42,0Z"/><g class="cls-4"><rect class="cls-5" x="59" y="-26.36" width="1" height="118.63" transform="translate(26.43 92.39) rotate(-89.89)"/><rect class="cls-5" x="58.97" y="-10.36" width="1" height="118.63" transform="translate(10.41 108.32) rotate(-89.89)"/><rect class="cls-5" x="58.94" y="5.63" width="1" height="118.63" transform="translate(-5.62 124.26) rotate(-89.89)"/><rect class="cls-5" x="58.91" y="21.63" width="1" height="118.63" transform="matrix(0, -1, 1, 0, -21.65, 140.19)"/><rect class="cls-5" x="58.88" y="37.62" width="1" height="118.63" transform="translate(-37.68 156.12) rotate(-89.89)"/><rect class="cls-5" x="58.84" y="53.62" width="1" height="118.63" transform="translate(-53.71 172.06) rotate(-89.89)"/><rect class="cls-5" x="58.81" y="69.62" width="1" height="118.63" transform="matrix(0, -1, 1, 0, -69.73, 187.99)"/></g><g class="cls-6"><rect class="cls-5" x="59" y="-26.36" width="1" height="118.63" transform="translate(26.43 92.39) rotate(-89.89)"/><rect class="cls-5" x="58.97" y="-10.36" width="1" height="118.63" transform="translate(10.4 108.32) rotate(-89.89)"/><rect class="cls-5" x="58.94" y="5.63" width="1" height="118.63" transform="translate(-5.62 124.26) rotate(-89.89)"/><rect class="cls-5" x="58.91" y="21.63" width="1" height="118.63" transform="translate(-21.65 140.19) rotate(-89.89)"/><rect class="cls-5" x="58.88" y="37.62" width="1" height="118.62" transform="translate(-37.68 156.12) rotate(-89.89)"/><rect class="cls-5" x="58.84" y="53.62" width="1" height="118.63" transform="translate(-53.71 172.06) rotate(-89.89)"/><rect class="cls-5" x="58.81" y="69.62" width="1" height="118.63" transform="matrix(0, -1, 1, 0, -69.73, 187.99)"/></g><polygon class="cls-7" points="39.16 0 79.97 0.08 100.33 24.68 18.71 24.51 39.16 0"/><polygon class="cls-8" points="95.79 19.19 100.33 24.68 18.71 24.51 23.27 19.05 95.79 19.19"/><rect class="cls-9" x="49.59" y="86.98" width="19.41" height="105.35" transform="translate(-80.48 198.67) rotate(-89.89)"/><rect class="cls-10" x="29.17" y="134.26" width="14.18" height="15.93" transform="translate(-106.04 178.19) rotate(-89.89)"/><rect class="cls-11" x="30.68" y="135.77" width="14.14" height="12.94" transform="translate(-104.57 179.72) rotate(-89.89)"/><rect class="cls-11" x="48.85" y="64.92" width="21.15" height="15.93" transform="translate(-13.57 132.16) rotate(-89.89)"/><rect class="cls-11" x="48.85" y="64.92" width="21.15" height="15.93" transform="translate(-13.57 132.16) rotate(-89.89)"/><rect class="cls-12" x="50.67" y="66.74" width="17.5" height="12.27" transform="translate(-13.57 132.16) rotate(-89.89)"/><rect class="cls-11" x="48.78" y="97.68" width="21.15" height="15.93" transform="translate(-46.4 164.8) rotate(-89.89)"/><rect class="cls-11" x="48.78" y="97.68" width="21.15" height="15.93" transform="translate(-46.4 164.8) rotate(-89.89)"/><rect class="cls-12" x="50.61" y="99.51" width="17.5" height="12.27" transform="translate(-46.4 164.79) rotate(-89.89)"/></g></g></svg>