<svg xmlns="http://www.w3.org/2000/svg" viewBox="0 0 168.91 168.91"><defs><style>.cls-1{fill:#400f48;}.cls-2{fill:#adadad;}.cls-2,.cls-3{fill-rule:evenodd;}.cls-3{fill:#6d6e70;}</style></defs><title>Asset 13</title><g id="Layer_2" data-name="Layer 2"><g id="Layer_1-2" data-name="Layer 1"><rect class="cls-1" x="82.79" y="-12.11" width="3.32" height="193.12" transform="translate(-34.98 84.23) rotate(-44.89)"/><path class="cls-2" d="M17.49,14.87,32.42,0,96.23,64.06,81.3,78.93,17.49,14.87Zm3.28.83,3.75,3.76,3.69-3.68L24.46,12,20.77,15.7ZM25,11.53l3.75,3.76,3.69-3.68L28.65,7.85,25,11.53Zm4.29-4.27L33,11l3.69-3.68L32.94,3.58l-3.7,3.68ZM25.4,20.34l3.74,3.76,3.7-3.68-3.75-3.76L25.4,20.34Zm4.18-4.17,3.74,3.77L37,16.26,33.27,12.5l-3.69,3.67Zm4.29-4.27,3.75,3.76L41.31,12,37.56,8.22,33.87,11.9ZM30,25l3.75,3.77,3.69-3.68L33.71,21.3,30,25Zm4.18-4.16L38,24.58l3.69-3.68L37.9,17.14l-3.7,3.68Zm4.29-4.28,3.75,3.77,3.69-3.68-3.74-3.76-3.7,3.67ZM34.65,29.63l3.74,3.76,3.7-3.68L38.34,26l-3.69,3.68Zm4.18-4.17,3.74,3.76,3.7-3.68-3.75-3.76-3.69,3.68Zm4.29-4.27L46.87,25l3.69-3.68-3.75-3.76-3.69,3.68ZM39.27,34.27,43,38l3.69-3.68L43,30.59l-3.69,3.68Zm4.18-4.17,3.75,3.77,3.69-3.68-3.74-3.76-3.7,3.67Zm4.29-4.27,3.75,3.76,3.69-3.68-3.74-3.76-3.7,3.68ZM43.9,38.91l3.74,3.77L51.34,39l-3.75-3.77L43.9,38.91Zm4.18-4.16,3.74,3.76,3.7-3.68-3.75-3.76-3.69,3.68Zm4.29-4.28,3.75,3.77,3.69-3.68L56.06,26.8l-3.69,3.67ZM48.52,43.56l3.75,3.76L56,43.64l-3.75-3.76-3.69,3.68Zm4.18-4.17,3.75,3.76,3.69-3.68L56.4,35.71l-3.7,3.68ZM57,35.12l3.75,3.76,3.69-3.68-3.74-3.76L57,35.12ZM53.15,48.2,56.89,52l3.7-3.68-3.75-3.76L53.15,48.2ZM57.33,44l3.74,3.77,3.7-3.68L61,40.36,57.33,44Zm4.29-4.27,3.75,3.76,3.69-3.68-3.75-3.76-3.69,3.68ZM57.77,52.84l3.75,3.76,3.69-3.67-3.75-3.77-3.69,3.68ZM62,48.68l3.75,3.76,3.69-3.68L65.65,45,62,48.68Zm4.29-4.28L70,48.17l3.69-3.68-3.74-3.76-3.7,3.67ZM62.4,57.49l3.74,3.76,3.7-3.68-3.75-3.76L62.4,57.49Zm4.18-4.17,3.74,3.76L74,53.4l-3.75-3.76-3.69,3.68Zm4.29-4.27,3.75,3.76,3.69-3.68-3.75-3.76-3.69,3.68ZM67,62.13l3.75,3.76,3.69-3.68-3.75-3.76L67,62.13ZM71.2,58,75,61.73l3.69-3.68L74.9,54.29,71.2,58Zm4.29-4.27,3.75,3.76,3.69-3.68L79.19,50l-3.7,3.68ZM71.64,66.77l3.75,3.77,3.7-3.68-3.75-3.77-3.7,3.68Zm4.19-4.16,3.74,3.76,3.7-3.68-3.75-3.76-3.69,3.68Zm4.29-4.28,3.75,3.77,3.69-3.68-3.75-3.77-3.69,3.68ZM76.27,71.42,80,75.18l3.69-3.68L80,67.74l-3.69,3.68Zm4.18-4.17L84.2,71l3.69-3.68-3.74-3.76-3.7,3.68ZM84.74,63l3.75,3.76,3.69-3.68L88.44,59.3Z"/><path class="cls-2" d="M136.49,168.91,151.42,154,87.61,90,72.68,104.84l63.81,64.07Zm-.81-3.29-3.75-3.76,3.69-3.68,3.75,3.76-3.69,3.68Zm4.18-4.17-3.75-3.76,3.7-3.68,3.74,3.77-3.69,3.67Zm4.29-4.27-3.75-3.76,3.7-3.68,3.74,3.76-3.69,3.68Zm-13.1,3.8-3.74-3.76,3.69-3.68,3.75,3.76-3.7,3.68Zm4.18-4.17-3.74-3.76,3.69-3.68,3.75,3.76-3.7,3.68Zm4.3-4.27-3.75-3.76,3.69-3.68,3.75,3.76-3.69,3.68Zm-13.1,3.79-3.75-3.76,3.69-3.68,3.75,3.76-3.69,3.68Zm4.18-4.16-3.75-3.76,3.7-3.68,3.74,3.76-3.69,3.68Zm4.29-4.28-3.75-3.76,3.7-3.68,3.74,3.76-3.69,3.68Zm-13.1,3.8-3.74-3.76,3.69-3.68L125.5,148l-3.7,3.68Zm4.18-4.17-3.74-3.76,3.69-3.68,3.75,3.77-3.7,3.67Zm4.3-4.27-3.75-3.76,3.69-3.68,3.75,3.76-3.69,3.68Zm-13.1,3.8-3.75-3.76,3.69-3.68,3.75,3.76-3.69,3.68Zm4.18-4.17-3.75-3.76,3.7-3.68,3.74,3.76-3.69,3.68Zm4.29-4.27-3.75-3.76,3.7-3.68,3.74,3.76-3.69,3.68Zm-13.1,3.79-3.74-3.76L112.5,135l3.75,3.76-3.7,3.68Zm4.19-4.16L113,134.48l3.69-3.68,3.75,3.76-3.69,3.68ZM121,134l-3.75-3.76,3.69-3.68,3.75,3.76L121,134Zm-13.1,3.8L104.18,134l3.69-3.68,3.75,3.76-3.69,3.68Zm4.18-4.17-3.75-3.76,3.7-3.68,3.74,3.77-3.69,3.67Zm4.29-4.27-3.75-3.76,3.7-3.68,3.74,3.76-3.69,3.68Zm-13.1,3.8-3.74-3.76,3.69-3.68,3.75,3.76-3.7,3.68Zm4.19-4.17-3.75-3.76,3.69-3.68,3.75,3.76L107.49,129Zm4.29-4.27L108,120.92l3.69-3.68,3.75,3.76-3.69,3.68Zm-13.1,3.79-3.75-3.76,3.7-3.68,3.74,3.77-3.69,3.67Zm4.18-4.16-3.75-3.76,3.7-3.68,3.74,3.76-3.69,3.68Zm4.29-4.28-3.75-3.76,3.7-3.68,3.74,3.77L107.15,120Zm-13.1,3.8-3.74-3.76L94,116.39l3.75,3.76-3.7,3.68Zm4.18-4.16-3.74-3.77,3.69-3.68,3.75,3.77-3.7,3.68Zm4.3-4.28-3.75-3.76,3.69-3.68,3.75,3.76-3.69,3.68Zm-13.1,3.8-3.75-3.76,3.69-3.68,3.75,3.76-3.69,3.68ZM93.61,115l-3.75-3.76,3.7-3.68,3.74,3.76L93.61,115Zm4.29-4.27L94.15,107l3.7-3.68,3.74,3.76-3.69,3.68Zm-13.1,3.79-3.74-3.76,3.69-3.68,3.75,3.77-3.7,3.67ZM89,110.38l-3.75-3.76,3.69-3.68,3.75,3.76L89,110.38Zm4.29-4.28-3.75-3.76,3.69-3.68L97,102.43l-3.69,3.67Zm-13.1,3.8-3.75-3.76,3.69-3.68,3.75,3.76-3.69,3.68Zm4.18-4.16L80.61,102l3.7-3.68,3.74,3.77-3.69,3.68Zm4.29-4.28L84.9,97.7,88.6,94l3.74,3.76Z"/><rect class="cls-1" x="-12.11" y="82.79" width="193.12" height="3.32" transform="translate(-34.98 84.21) rotate(-44.88)"/><path class="cls-2" d="M14.87,151.42,0,136.49,64.06,72.68,78.93,87.61,14.87,151.42Zm.83-3.28,3.76-3.75-3.68-3.69L12,144.44l3.68,3.7ZM11.53,144l3.76-3.74-3.68-3.7-3.76,3.75L11.53,144Zm-4.27-4.29L11,135.92l-3.68-3.7L3.58,136l3.68,3.69Zm13.08,3.85,3.76-3.75-3.68-3.69-3.76,3.75,3.68,3.69Zm-4.16-4.18,3.76-3.75-3.68-3.69-3.76,3.75,3.68,3.69ZM11.9,135l3.76-3.75L12,127.6l-3.76,3.75L11.9,135ZM25,138.89l3.77-3.75-3.68-3.69-3.76,3.74,3.67,3.7Zm-4.16-4.19L24.58,131l-3.68-3.7L17.14,131l3.68,3.69Zm-4.28-4.29,3.77-3.74L16.63,123l-3.76,3.75,3.67,3.69Zm13.09,3.85,3.76-3.75-3.68-3.69L26,130.57l3.68,3.69Zm-4.17-4.18,3.76-3.75-3.68-3.69-3.76,3.75,3.68,3.69Zm-4.27-4.29L25,122l-3.68-3.69-3.76,3.75,3.68,3.69Zm13.08,3.85L38,125.89l-3.68-3.69-3.76,3.74,3.68,3.7Zm-4.17-4.19,3.77-3.74L30.19,118l-3.76,3.75,3.67,3.69Zm-4.27-4.29,3.76-3.74-3.68-3.7-3.76,3.75,3.68,3.69ZM38.91,125l3.77-3.74L39,117.57l-3.77,3.75L38.91,125Zm-4.16-4.18,3.76-3.75-3.68-3.69-3.76,3.75,3.68,3.69Zm-4.28-4.29,3.77-3.75-3.68-3.69-3.77,3.74,3.68,3.7Zm13.09,3.85,3.76-3.75L43.64,113l-3.76,3.74,3.68,3.7Zm-4.17-4.19,3.76-3.74-3.68-3.7-3.76,3.75,3.68,3.69Zm-4.27-4.29,3.76-3.74-3.68-3.7-3.76,3.75,3.68,3.69Zm13.08,3.85L52,112l-3.68-3.7-3.76,3.75,3.68,3.69ZM44,111.58l3.77-3.75-3.68-3.69-3.76,3.75L44,111.58Zm-4.27-4.29,3.76-3.75-3.68-3.69-3.76,3.75,3.68,3.69Zm13.08,3.85,3.77-3.75-3.68-3.69-3.77,3.74,3.68,3.7ZM48.68,107l3.76-3.74-3.68-3.7L45,103.26,48.68,107Zm-4.28-4.29,3.77-3.74-3.68-3.7L40.72,99l3.68,3.69Zm13.09,3.85,3.76-3.75-3.68-3.69-3.76,3.75,3.68,3.69Zm-4.17-4.18,3.76-3.75L53.4,94.89l-3.76,3.75,3.68,3.69ZM49.05,98l3.76-3.75L49.13,90.6l-3.76,3.75L49.05,98Zm13.08,3.85,3.76-3.75-3.68-3.69-3.76,3.74,3.68,3.7ZM58,97.7,61.73,94l-3.68-3.7L54.29,94,58,97.7Zm-4.27-4.29,3.76-3.74L53.77,86,50,89.72l3.68,3.69Zm13.08,3.85,3.77-3.75-3.68-3.69-3.77,3.75,3.68,3.69Zm-4.16-4.18,3.76-3.75-3.68-3.69-3.76,3.75,3.68,3.69Zm-4.28-4.29L62.1,85l-3.68-3.69L54.65,85.1l3.68,3.69Zm13.09,3.85,3.76-3.75L71.5,85.2l-3.76,3.74,3.68,3.7Zm-4.17-4.19L71,84.71,67.33,81l-3.76,3.75,3.68,3.69ZM63,84.16l3.76-3.74-3.68-3.7L59.3,80.47Z"/><path class="cls-2" d="M168.91,32.42,154,17.49,90,81.3l14.87,14.93,64.07-63.81Zm-3.29.81L161.86,37l-3.68-3.7,3.76-3.74,3.68,3.69Zm-4.17-4.18-3.76,3.74L154,29.1l3.77-3.75,3.67,3.7Zm-4.27-4.29-3.76,3.74-3.68-3.69,3.76-3.75,3.68,3.7ZM161,37.85l-3.76,3.75-3.68-3.69,3.76-3.75L161,37.85Zm-4.17-4.18-3.76,3.75-3.68-3.69L153.13,30l3.68,3.69Zm-4.27-4.29-3.76,3.75-3.68-3.7,3.76-3.74,3.68,3.69Zm3.79,13.1-3.76,3.75-3.68-3.7,3.76-3.74,3.68,3.69Zm-4.16-4.18L148.41,42l-3.68-3.69,3.76-3.75,3.68,3.7ZM147.89,34l-3.76,3.74-3.68-3.69,3.76-3.75,3.68,3.7Zm3.8,13.09-3.76,3.75-3.68-3.69L148,43.41l3.68,3.69Zm-4.17-4.18-3.76,3.75L140.08,43l3.77-3.75,3.67,3.69Zm-4.27-4.29-3.76,3.75-3.68-3.7,3.76-3.74,3.68,3.69Zm3.8,13.1-3.76,3.75-3.68-3.7L143.37,48l3.68,3.69Zm-4.17-4.18-3.76,3.74-3.68-3.69,3.76-3.75,3.68,3.7Zm-4.27-4.29L134.85,47l-3.68-3.69,3.76-3.75,3.68,3.7Zm3.79,13.09-3.76,3.75L135,56.41l3.77-3.75,3.67,3.69Zm-4.16-4.18-3.76,3.75-3.68-3.69,3.76-3.75,3.68,3.69ZM134,47.88l-3.76,3.75-3.68-3.7,3.77-3.74L134,47.88Zm3.8,13.1L134,64.73,130.32,61l3.76-3.74L137.76,61ZM133.6,56.8l-3.77,3.74-3.68-3.69,3.77-3.75,3.68,3.7Zm-4.28-4.29-3.76,3.74-3.68-3.69,3.76-3.75,3.68,3.7Zm3.8,13.09-3.76,3.75-3.68-3.69,3.76-3.75,3.68,3.69ZM129,61.42l-3.76,3.75-3.68-3.69,3.76-3.75L129,61.42Zm-4.27-4.29-3.76,3.75-3.68-3.7L121,53.44l3.68,3.69Zm3.79,13.1L124.71,74,121,70.28l3.77-3.74,3.67,3.69Zm-4.16-4.18-3.76,3.74-3.68-3.69,3.76-3.75,3.68,3.7ZM120,61.76l-3.76,3.74-3.68-3.69,3.77-3.75,3.67,3.7Zm3.8,13.09-3.76,3.75-3.68-3.69,3.76-3.75,3.68,3.69Zm-4.16-4.18-3.77,3.75-3.68-3.69L116,67l3.68,3.69Zm-4.28-4.29-3.76,3.75L108,66.43l3.76-3.74,3.68,3.69Zm3.8,13.1-3.76,3.75-3.68-3.7,3.76-3.74,3.68,3.69ZM115,75.3,111.26,79l-3.68-3.69,3.76-3.75L115,75.3ZM110.75,71,107,74.75l-3.68-3.69,3.76-3.75,3.68,3.7Zm3.79,13.09-3.76,3.75-3.68-3.69,3.77-3.75,3.67,3.69Zm-4.16-4.18-3.76,3.75L102.94,80l3.76-3.75,3.68,3.69Zm-4.28-4.29-3.76,3.75-3.68-3.7,3.77-3.74,3.67,3.69Zm3.8,13.1-3.76,3.75-3.68-3.7L106.22,85l3.68,3.69Zm-4.16-4.18L102,88.29,98.29,84.6l3.77-3.75,3.68,3.7Zm-4.28-4.29L97.7,84,94,80.31l3.76-3.75Z"/><path class="cls-3" d="M80.88,80.87a5.06,5.06,0,1,1,0,7.15A5.07,5.07,0,0,1,80.88,80.87Z"/></g></g></svg>