<svg xmlns="http://www.w3.org/2000/svg" viewBox="0 0 239.38 200"><defs><style>.cls-1{fill:#e5dbae;}.cls-2{fill:#bfb891;}.cls-3{fill:#f9f2d7;}.cls-4{fill:#b5ae83;}.cls-5{fill:#d8cea4;}</style></defs><title>Asset 6</title><g id="Layer_2" data-name="Layer 2"><g id="Layer_1-2" data-name="Layer 1"><g id="_Group_" data-name="&lt;Group&gt;"><rect id="_Path_" data-name="&lt;Path&gt;" class="cls-1" x="12.74" y="61.14" width="71.07" height="138.86"/><rect id="_Path_2" data-name="&lt;Path&gt;" class="cls-2" x="19.4" y="68.6" width="57.74" height="29.48"/><path id="_Path_3" data-name="&lt;Path&gt;" class="cls-3" d="M70.25,190.59H26.3V143.43a22,22,0,0,1,22-22h0a22,22,0,0,1,22,22Z"/><rect id="_Path_4" data-name="&lt;Path&gt;" class="cls-1" x="155.57" y="61.14" width="71.07" height="138.86"/><polygon id="_Path_5" data-name="&lt;Path&gt;" class="cls-4" points="119.69 55.34 9.35 55.34 9.35 60.95 119.69 60.95 230.03 60.95 230.03 55.34 119.69 55.34"/><rect id="_Path_6" data-name="&lt;Path&gt;" class="cls-2" x="162.23" y="68.6" width="57.74" height="29.48"/><path id="_Path_7" data-name="&lt;Path&gt;" class="cls-3" d="M169.13,190.59h44V143.43a22,22,0,0,0-22-22h0a22,22,0,0,0-22,22Z"/><polygon id="_Path_8" data-name="&lt;Path&gt;" class="cls-1" points="119.69 33.56 0 33.56 9.35 55.34 119.69 55.34 230.03 55.34 239.38 33.56 119.69 33.56"/><polygon id="_Path_9" data-name="&lt;Path&gt;" class="cls-4" points="119.69 28.41 0 28.41 0 33.56 119.69 33.56 239.38 33.56 239.38 28.41 119.69 28.41"/><polygon id="_Path_10" data-name="&lt;Path&gt;" class="cls-1" points="119.69 14.39 9.35 14.39 9.35 28.41 119.69 28.41 230.03 28.41 230.03 14.39 119.69 14.39"/><polygon id="_Path_11" data-name="&lt;Path&gt;" class="cls-4" points="119.69 9.32 5.14 9.32 9.35 14.39 119.69 14.39 230.03 14.39 234.24 9.32 119.69 9.32"/><polygon id="_Path_12" data-name="&lt;Path&gt;" class="cls-1" points="119.69 3.63 5.14 3.63 5.14 9.32 119.69 9.32 234.24 9.32 234.24 3.63 119.69 3.63"/><path id="_Path_13" data-name="&lt;Path&gt;" class="cls-5" d="M83.81,61.14V110.7h5.84V100.22a30,30,0,1,1,60.08,0V110.7h5.84V61.14Z"/><rect id="_Path_14" data-name="&lt;Path&gt;" class="cls-1" x="111.41" width="17.4" height="4.48"/><rect id="_Path_15" data-name="&lt;Path&gt;" class="cls-1" x="85.9" width="17.4" height="4.48"/><rect id="_Path_16" data-name="&lt;Path&gt;" class="cls-1" x="60.38" width="17.4" height="4.48"/><rect id="_Path_17" data-name="&lt;Path&gt;" class="cls-1" x="34.87" width="17.4" height="4.48"/><rect id="_Path_18" data-name="&lt;Path&gt;" class="cls-1" x="9.35" width="17.4" height="4.48"/><rect id="_Path_19" data-name="&lt;Path&gt;" class="cls-1" x="213.48" width="17.4" height="4.48"/><rect id="_Path_20" data-name="&lt;Path&gt;" class="cls-1" x="187.96" width="17.4" height="4.48"/><rect id="_Path_21" data-name="&lt;Path&gt;" class="cls-1" x="162.44" width="17.4" height="4.48"/><rect id="_Path_22" data-name="&lt;Path&gt;" class="cls-1" x="136.93" width="17.4" height="4.48"/><rect id="_Path_23" data-name="&lt;Path&gt;" class="cls-4" x="6.9" y="105.56" width="82.75" height="5.14"/><rect id="_Path_24" data-name="&lt;Path&gt;" class="cls-4" x="149.73" y="105.56" width="82.75" height="5.14"/></g></g></g></svg>