<svg xmlns="http://www.w3.org/2000/svg" viewBox="0 0 241.57 241.57"><defs><style>.cls-1{fill:#394d57;}.cls-2{fill:#4a6370;}.cls-3{fill:#f7c679;}.cls-4{fill:#cca364;}.cls-5{fill:#769eb3;}</style></defs><title>Asset 19</title><g id="Layer_2" data-name="Layer 2"><g id="Layer_1-2" data-name="Layer 1"><rect class="cls-1" x="114.63" width="9.54" height="11.43"/><rect class="cls-2" x="114.63" width="3.54" height="11.43"/><rect class="cls-1" x="121.12" y="4.29" width="3.05" height="11.43"/><rect class="cls-1" x="84.89" y="4.28" width="9.55" height="11.43" transform="matrix(0.97, -0.26, 0.26, 0.97, 0.47, 23.56)"/><rect class="cls-2" x="84.99" y="5.06" width="3.54" height="11.43" transform="translate(0.17 22.83) rotate(-15)"/><rect class="cls-1" x="92.38" y="7.58" width="3.05" height="11.43" transform="translate(-0.24 24.76) rotate(-15)"/><rect class="cls-1" x="57.28" y="16.11" width="9.55" height="11.43" transform="translate(-2.6 33.95) rotate(-30)"/><rect class="cls-2" x="57.68" y="17.61" width="3.54" height="11.43" transform="translate(-3.7 32.83) rotate(-29.99)"/><rect class="cls-1" x="65.48" y="18.2" width="3.05" height="11.43" transform="matrix(0.87, -0.5, 0.5, 0.87, -2.98, 36.71)"/><rect class="cls-1" x="33.66" y="34.68" width="9.55" height="11.43" transform="translate(-17.31 39.01) rotate(-45)"/><rect class="cls-2" x="34.54" y="36.81" width="3.54" height="11.43" transform="translate(-19.43 38.13) rotate(-45)"/><rect class="cls-1" x="42.24" y="35.42" width="3.05" height="11.43" transform="translate(-16.27 43.01) rotate(-45.01)"/><rect class="cls-1" x="15.66" y="58.74" width="9.55" height="11.43" transform="translate(-45.6 49.93) rotate(-60)"/><rect class="cls-2" x="17.17" y="61.33" width="3.54" height="11.43" transform="translate(-48.6 49.93) rotate(-60)"/><rect class="cls-1" x="24.25" y="58.07" width="3.05" height="11.43" transform="translate(-42.35 54.22) rotate(-60.01)"/><rect class="cls-1" x="4.5" y="86.63" width="9.54" height="11.43" transform="translate(-82.32 77.41) rotate(-75)"/><rect class="cls-2" x="6.73" y="89.53" width="3.54" height="11.43" transform="translate(-85.7 78.83) rotate(-75.02)"/><rect class="cls-1" x="12.73" y="84.6" width="3.05" height="11.43" transform="translate(-76.67 80.73) rotate(-75.01)"/><rect class="cls-1" x="0.94" y="116.46" width="9.54" height="11.43" transform="translate(-116.46 127.89) rotate(-90)"/><rect class="cls-2" x="3.94" y="119.46" width="3.54" height="11.43" transform="translate(-119.46 130.89) rotate(-90)"/><rect class="cls-1" x="8.47" y="113.21" width="3.05" height="11.43" transform="translate(-108.93 128.93) rotate(-90)"/><rect class="cls-1" x="5.22" y="146.19" width="9.54" height="11.43" transform="matrix(-0.26, -0.97, 0.97, -0.26, -134.15, 200.86)"/><rect class="cls-2" x="9" y="149.09" width="3.54" height="11.43" transform="translate(-135.98 205.26) rotate(-104.99)"/><rect class="cls-1" x="11.77" y="141.95" width="3.05" height="11.43" transform="translate(-125.88 198.75) rotate(-105.01)"/><rect class="cls-1" x="17.05" y="173.81" width="9.54" height="11.43" transform="translate(-122.72 288.19) rotate(-120.01)"/><rect class="cls-2" x="21.55" y="176.41" width="3.54" height="11.43" transform="translate(-122.76 293.34) rotate(-119.99)"/><rect class="cls-1" x="22.39" y="168.85" width="3.05" height="11.43" transform="translate(-115.3 282.57) rotate(-120)"/><rect class="cls-1" x="35.63" y="197.42" width="9.54" height="11.43" transform="translate(-74.66 375.34) rotate(-135)"/><rect class="cls-2" x="40.75" y="199.54" width="3.54" height="11.43" transform="translate(-72.52 380.48) rotate(-135.01)"/><rect class="cls-1" x="39.61" y="192.09" width="3.05" height="11.43" transform="translate(-69.65 366.76) rotate(-135)"/><rect class="cls-1" x="59.68" y="215.42" width="9.54" height="11.43" transform="translate(9.75 444.88) rotate(-150.01)"/><rect class="cls-2" x="65.28" y="216.92" width="3.54" height="11.43" transform="translate(13.88 448.98) rotate(-150.02)"/><rect class="cls-1" x="62.26" y="210.08" width="3.05" height="11.43" transform="translate(11.16 434.58) rotate(-150.01)"/><rect class="cls-1" x="87.57" y="226.58" width="9.54" height="11.43" transform="translate(121.45 480.57) rotate(-165.01)"/><rect class="cls-2" x="93.47" y="227.35" width="3.54" height="11.43" transform="translate(126.89 482.85) rotate(-164.99)"/><rect class="cls-1" x="88.79" y="221.6" width="3.05" height="11.43" transform="translate(118.69 470.26) rotate(-164.99)"/><rect class="cls-1" x="117.4" y="230.14" width="9.54" height="11.43" transform="translate(244.34 471.71) rotate(180)"/><rect class="cls-2" x="123.4" y="230.14" width="3.54" height="11.43" transform="translate(250.35 471.71) rotate(180)"/><rect class="cls-1" x="117.4" y="225.86" width="3.05" height="11.43" transform="translate(237.85 463.14) rotate(180)"/><rect class="cls-1" x="147.14" y="225.86" width="9.54" height="11.43" transform="translate(358.6 415.92) rotate(164.99)"/><rect class="cls-2" x="153.03" y="225.08" width="3.54" height="11.43" transform="translate(364.1 413.64) rotate(164.99)"/><rect class="cls-1" x="146.13" y="222.56" width="3.05" height="11.43" transform="translate(349.33 410.61) rotate(165.01)"/><rect class="cls-1" x="174.75" y="214.03" width="9.54" height="11.43" transform="translate(444.87 320.28) rotate(150)"/><rect class="cls-2" x="180.35" y="212.53" width="3.54" height="11.43" transform="translate(448.97 316.16) rotate(149.99)"/><rect class="cls-1" x="173.04" y="211.94" width="3.05" height="11.43" transform="translate(434.56 318.91) rotate(150.01)"/><rect class="cls-1" x="198.36" y="195.46" width="9.54" height="11.43" transform="translate(489.02 199.83) rotate(135.01)"/><rect class="cls-2" x="203.48" y="193.34" width="3.54" height="11.43" transform="translate(491.14 194.72) rotate(135.01)"/><rect class="cls-1" x="196.28" y="194.72" width="3.05" height="11.43" transform="translate(479.41 202.42) rotate(135.03)"/><rect class="cls-1" x="216.36" y="171.4" width="9.54" height="11.43" transform="translate(485.08 74.15) rotate(119.99)"/><rect class="cls-2" x="220.86" y="168.81" width="3.54" height="11.43" transform="translate(485.06 68.91) rotate(119.99)"/><rect class="cls-1" x="214.27" y="172.07" width="3.05" height="11.43" transform="translate(477.62 79.68) rotate(119.97)"/><rect class="cls-1" x="227.52" y="143.51" width="9.55" height="11.43" transform="translate(436.58 -36.5) rotate(105.01)"/><rect class="cls-2" x="231.3" y="140.61" width="3.54" height="11.43" transform="translate(434.78 -40.87) rotate(105.01)"/><rect class="cls-1" x="225.79" y="145.54" width="3.05" height="11.43" transform="translate(432.26 -29.15) rotate(105)"/><rect class="cls-1" x="231.08" y="113.68" width="9.54" height="11.43" transform="translate(355.25 -116.46) rotate(90)"/><rect class="cls-2" x="234.08" y="110.68" width="3.54" height="11.43" transform="translate(352.25 -119.46) rotate(90)"/><rect class="cls-1" x="230.04" y="116.93" width="3.05" height="11.43" transform="translate(354.21 -108.92) rotate(90)"/><rect class="cls-1" x="226.8" y="83.95" width="9.55" height="11.43" transform="matrix(0.26, 0.97, -0.97, 0.26, 258.25, -157.23)"/><rect class="cls-2" x="229.03" y="81.05" width="3.54" height="11.43" transform="translate(254.79 -158.63) rotate(74.98)"/><rect class="cls-1" x="226.75" y="88.19" width="3.05" height="11.43" transform="translate(259.83 -150.9) rotate(74.98)"/><rect class="cls-1" x="214.97" y="56.33" width="9.54" height="11.43" transform="translate(163.6 -159.28) rotate(60)"/><rect class="cls-2" x="216.47" y="53.74" width="3.54" height="11.43" transform="translate(160.66 -159.29) rotate(60.01)"/><rect class="cls-1" x="216.13" y="61.29" width="3.05" height="11.43" transform="translate(166.8 -154.98) rotate(59.98)"/><rect class="cls-1" x="196.4" y="32.72" width="9.54" height="11.43" transform="translate(86.1 -130.99) rotate(45)"/><rect class="cls-2" x="197.28" y="30.6" width="3.54" height="11.43" transform="translate(84.01 -130.13) rotate(45.01)"/><rect class="cls-1" x="198.91" y="38.05" width="3.05" height="11.43" transform="translate(89.73 -128.96) rotate(45.03)"/><rect class="cls-1" x="172.35" y="14.72" width="9.54" height="11.43" transform="translate(33.95 -85.83) rotate(30)"/><rect class="cls-2" x="172.75" y="13.22" width="3.54" height="11.43" transform="translate(32.84 -84.7) rotate(29.99)"/><rect class="cls-1" x="176.26" y="20.06" width="3.05" height="11.43" transform="translate(36.72 -85.46) rotate(30.01)"/><rect class="cls-1" x="144.45" y="3.56" width="9.55" height="11.43" transform="matrix(0.97, 0.26, -0.26, 0.97, 7.48, -38.3)"/><rect class="cls-2" x="144.56" y="2.79" width="3.54" height="11.43" transform="translate(7.17 -37.54) rotate(14.98)"/><rect class="cls-1" x="149.73" y="8.54" width="3.05" height="11.43" transform="translate(8.85 -38.67) rotate(15)"/><rect class="cls-3" x="119.9" y="27.77" width="1.77" height="88.63"/><rect class="cls-4" x="121.21" y="27.77" width="0.63" height="88.63"/><rect class="cls-3" x="113.54" y="28.19" width="1.77" height="88.62" transform="matrix(0.99, -0.13, 0.13, 0.99, -8.47, 15.53)"/><rect class="cls-4" x="114.85" y="28.09" width="0.63" height="88.63" transform="translate(-8.5 15.72) rotate(-7.53)"/><rect class="cls-3" x="107.29" y="29.43" width="1.77" height="88.62" transform="translate(-15.41 30.54) rotate(-15.02)"/><rect class="cls-4" x="108.58" y="29.24" width="0.63" height="88.62" transform="translate(-15.32 30.68) rotate(-14.99)"/><rect class="cls-3" x="101.26" y="31.48" width="1.77" height="88.62" transform="translate(-21.23 44.88) rotate(-22.51)"/><polygon class="cls-4" points="120.08 116.33 119.5 116.57 85.58 34.69 86.16 34.45 120.08 116.33"/><rect class="cls-3" x="95.55" y="34.3" width="1.77" height="88.62" transform="matrix(0.87, -0.5, 0.5, 0.87, -26.39, 58.79)"/><rect class="cls-4" x="96.76" y="33.93" width="0.63" height="88.62" transform="translate(-26.13 59.1) rotate(-30.04)"/><rect class="cls-3" x="90.25" y="37.84" width="1.77" height="88.63" transform="translate(-31.18 72.52) rotate(-37.53)"/><rect class="cls-4" x="91.41" y="37.39" width="0.63" height="88.62" transform="translate(-30.78 72.66) rotate(-37.47)"/><rect class="cls-3" x="85.46" y="42.04" width="1.77" height="88.62" transform="translate(-35.77 86.35) rotate(-45)"/><rect class="cls-4" x="86.56" y="41.52" width="0.63" height="88.62" transform="translate(-35.25 86.56) rotate(-45)"/><rect class="cls-3" x="81.26" y="46.83" width="1.77" height="88.62" transform="translate(-40.16 100.91) rotate(-52.54)"/><rect class="cls-4" x="82.28" y="46.24" width="0.63" height="88.62" transform="translate(-39.52 100.98) rotate(-52.51)"/><rect class="cls-3" x="77.72" y="52.12" width="1.77" height="88.63" transform="matrix(0.5, -0.87, 0.87, 0.5, -44.23, 116.19)"/><rect class="cls-4" x="78.66" y="51.48" width="0.63" height="88.62" transform="translate(-43.45 116.45) rotate(-60.07)"/><rect class="cls-3" x="74.91" y="57.84" width="1.77" height="88.63" transform="translate(-47.57 133.12) rotate(-67.52)"/><rect class="cls-4" x="75.76" y="57.15" width="0.63" height="88.62" transform="translate(-46.76 133.01) rotate(-67.54)"/><rect class="cls-3" x="72.86" y="63.87" width="1.77" height="88.62" transform="translate(-49.83 151.43) rotate(-75.01)"/><polygon class="cls-4" points="116.82 118.63 116.66 119.24 31.05 96.3 31.21 95.7 116.82 118.63"/><rect class="cls-3" x="71.62" y="70.12" width="1.77" height="88.63" transform="translate(-50.4 171.39) rotate(-82.51)"/><rect class="cls-4" x="72.28" y="69.38" width="0.63" height="88.63" transform="matrix(0.13, -0.99, 0.99, 0.13, -49.62, 170.79)"/><rect class="cls-3" x="71.2" y="76.47" width="1.77" height="88.62" transform="translate(-48.7 192.87) rotate(-90)"/><rect class="cls-4" x="71.77" y="75.73" width="0.63" height="88.62" transform="translate(-47.96 192.13) rotate(-90)"/><rect class="cls-3" x="71.62" y="82.83" width="1.77" height="88.63" transform="translate(-44.09 215.61) rotate(-97.5)"/><rect class="cls-4" x="72.09" y="82.1" width="0.63" height="88.62" transform="translate(-43.58 214.55) rotate(-97.43)"/><rect class="cls-3" x="72.86" y="89.08" width="1.77" height="88.62" transform="matrix(-0.26, -0.97, 0.97, -0.26, -36, 239.16)"/><polygon class="cls-4" points="116.27 120.91 116.44 121.51 30.83 144.45 30.67 143.84 116.27 120.91"/><rect class="cls-3" x="74.91" y="95.11" width="1.77" height="88.63" transform="translate(-24 262.81) rotate(-112.51)"/><rect class="cls-4" x="75.2" y="94.43" width="0.63" height="88.62" transform="translate(-23.61 261.72) rotate(-112.57)"/><rect class="cls-3" x="77.72" y="100.82" width="1.77" height="88.63" transform="matrix(-0.5, -0.87, 0.87, -0.5, -7.69, 285.83)"/><rect class="cls-4" x="77.93" y="100.18" width="0.63" height="88.62" transform="translate(-7.87 284.44) rotate(-119.96)"/><rect class="cls-3" x="81.26" y="106.12" width="1.77" height="88.62" transform="translate(12.72 307.14) rotate(-127.46)"/><rect class="cls-4" x="81.39" y="105.53" width="0.63" height="88.62" transform="translate(12.32 305.78) rotate(-127.42)"/><rect class="cls-3" x="85.46" y="110.91" width="1.77" height="88.62" transform="translate(37.65 326.04) rotate(-135)"/><rect class="cls-4" x="85.51" y="110.39" width="0.63" height="88.62" transform="translate(37.13 324.78) rotate(-135)"/><rect class="cls-3" x="90.25" y="115.11" width="1.77" height="88.63" transform="matrix(-0.79, -0.61, 0.61, -0.79, 66.38, 341.38)"/><polygon class="cls-4" points="117.28 123.63 117.78 124.01 63.83 194.32 63.33 193.94 117.28 123.63"/><rect class="cls-3" x="95.55" y="118.65" width="1.77" height="88.62" transform="translate(98.49 352.31) rotate(-150)"/><rect class="cls-4" x="95.48" y="118.28" width="0.63" height="88.63" transform="translate(97.36 351.3) rotate(-149.97)"/><rect class="cls-3" x="101.26" y="121.47" width="1.77" height="88.62" transform="translate(133.05 358.03) rotate(-157.49)"/><rect class="cls-4" x="101.15" y="121.18" width="0.63" height="88.62" transform="translate(131.91 357.22) rotate(-157.51)"/><rect class="cls-3" x="107.29" y="123.51" width="1.77" height="88.62" transform="translate(169.19 357.95) rotate(-164.99)"/><rect class="cls-4" x="107.15" y="123.32" width="0.63" height="88.62" transform="matrix(-0.97, -0.26, 0.26, -0.97, 168.09, 357.31)"/><rect class="cls-3" x="113.54" y="124.76" width="1.77" height="88.62" transform="translate(205.95 351.56) rotate(-172.54)"/><rect class="cls-4" x="113.38" y="124.66" width="0.63" height="88.62" transform="translate(204.02 351.51) rotate(-172.39)"/><rect class="cls-3" x="119.9" y="125.17" width="1.77" height="88.63" transform="translate(241.57 338.97) rotate(180)"/><rect class="cls-4" x="119.73" y="125.17" width="0.63" height="88.63" transform="translate(240.09 338.97) rotate(180)"/><rect class="cls-3" x="126.26" y="124.76" width="1.77" height="88.62" transform="translate(275.16 320.19) rotate(172.54)"/><rect class="cls-4" x="126.1" y="124.85" width="0.63" height="88.62" transform="translate(273.87 320.34) rotate(172.48)"/><rect class="cls-3" x="132.5" y="123.51" width="1.77" height="88.62" transform="translate(305.72 295.34) rotate(164.98)"/><polygon class="cls-4" points="120.91 125.3 121.51 125.13 144.45 210.74 143.84 210.9 120.91 125.3"/><rect class="cls-3" x="138.54" y="121.47" width="1.77" height="88.62" transform="translate(331.72 265.48) rotate(157.47)"/><polygon class="cls-4" points="121.49 125.24 122.07 125 155.99 206.88 155.41 207.12 121.49 125.24"/><rect class="cls-3" x="144.25" y="118.65" width="1.77" height="88.62" transform="translate(352.32 231.48) rotate(149.99)"/><rect class="cls-4" x="144.18" y="119.02" width="0.63" height="88.62" transform="translate(351.33 232.44) rotate(149.98)"/><rect class="cls-3" x="149.55" y="115.11" width="1.77" height="88.63" transform="translate(366.83 194.3) rotate(142.49)"/><polygon class="cls-4" points="122.62 124.91 123.12 124.53 177.07 194.83 176.57 195.22 122.62 124.91"/><rect class="cls-3" x="154.34" y="110.91" width="1.77" height="88.62" transform="translate(374.74 154.96) rotate(134.93)"/><polygon class="cls-4" points="123.14 124.63 123.59 124.19 186.25 186.85 185.81 187.3 123.14 124.63"/><rect class="cls-3" x="158.54" y="106.12" width="1.77" height="88.62" transform="translate(375.81 115.48) rotate(127.49)"/><rect class="cls-4" x="158.66" y="106.71" width="0.63" height="88.62" transform="translate(375.6 117.08) rotate(127.57)"/><rect class="cls-3" x="162.07" y="100.82" width="1.77" height="88.62" transform="translate(370.1 76.49) rotate(119.98)"/><polygon class="cls-4" points="124.06 123.89 124.37 123.35 201.12 167.66 200.81 168.2 124.06 123.89"/><rect class="cls-3" x="164.89" y="95.11" width="1.77" height="88.62" transform="translate(358.09 39.74) rotate(112.54)"/><rect class="cls-4" x="165.18" y="95.79" width="0.63" height="88.63" transform="translate(358.46 41.21) rotate(112.61)"/><rect class="cls-3" x="166.94" y="89.08" width="1.77" height="88.62" transform="translate(340.12 5.83) rotate(105.01)"/><polygon class="cls-4" points="124.75 122.94 124.91 122.33 210.52 145.27 210.36 145.88 124.75 122.94"/><rect class="cls-3" x="168.18" y="82.83" width="1.77" height="88.62" transform="matrix(-0.13, 0.99, -0.99, -0.13, 317.27, -23.81)"/><polygon class="cls-4" points="125 122.4 125.08 121.78 212.95 133.34 212.87 133.97 125 122.4"/><rect class="cls-3" x="168.6" y="76.47" width="1.77" height="88.62" transform="translate(290.27 -48.7) rotate(90)"/><rect class="cls-4" x="169.17" y="77.21" width="0.63" height="88.62" transform="translate(291.01 -47.96) rotate(90)"/><rect class="cls-3" x="168.18" y="70.12" width="1.77" height="88.62" transform="translate(260.37 -68.17) rotate(82.47)"/><polygon class="cls-4" points="125.27 121.26 125.19 120.63 213.06 109.06 213.14 109.69 125.27 121.26"/><rect class="cls-3" x="166.94" y="63.87" width="1.77" height="88.62" transform="translate(228.91 -81.92) rotate(75.01)"/><rect class="cls-4" x="167.7" y="64.58" width="0.63" height="88.63" transform="translate(229.81 -81.55) rotate(75.03)"/><rect class="cls-3" x="164.89" y="57.84" width="1.77" height="88.62" transform="translate(196.67 -90.11) rotate(67.49)"/><rect class="cls-4" x="165.75" y="58.52" width="0.63" height="88.62" transform="translate(197.65 -89.92) rotate(67.54)"/><rect class="cls-3" x="162.07" y="52.12" width="1.77" height="88.62" transform="translate(165.02 -92.91) rotate(60.01)"/><polygon class="cls-4" points="125.11 119.5 124.8 118.96 201.55 74.65 201.86 75.19 125.11 119.5"/><rect class="cls-3" x="158.54" y="46.83" width="1.77" height="88.62" transform="translate(134.72 -90.83) rotate(52.51)"/><polygon class="cls-4" points="124.91 118.95 124.52 118.45 194.84 64.5 195.22 65 124.91 118.95"/><polygon class="cls-3" points="124.51 118.31 123.26 117.06 185.93 54.39 187.18 55.64 124.51 118.31"/><rect class="cls-4" x="155.43" y="42.56" width="0.63" height="88.62" transform="translate(107.06 -84.69) rotate(45.01)"/><rect class="cls-3" x="149.55" y="37.84" width="1.77" height="88.62" transform="translate(81.18 -74.64) rotate(37.53)"/><rect class="cls-4" x="150.7" y="38.29" width="0.63" height="88.63" transform="translate(81.52 -74.88) rotate(37.51)"/><rect class="cls-3" x="144.25" y="34.3" width="1.77" height="88.62" transform="translate(58.84 -62.09) rotate(30.04)"/><rect class="cls-4" x="145.46" y="34.67" width="0.63" height="88.62" transform="translate(58.93 -62.25) rotate(29.97)"/><rect class="cls-3" x="138.54" y="31.48" width="1.77" height="88.62" transform="translate(39.68 -47.64) rotate(22.53)"/><rect class="cls-4" x="139.79" y="31.76" width="0.63" height="88.62" transform="translate(39.51 -47.61) rotate(22.38)"/><rect class="cls-3" x="132.5" y="29.43" width="1.77" height="88.62" transform="translate(23.67 -32.06) rotate(15.02)"/><rect class="cls-4" x="133.79" y="29.62" width="0.63" height="88.62" transform="translate(23.67 -32.15) rotate(14.98)"/><rect class="cls-3" x="126.26" y="28.19" width="1.77" height="88.62" transform="translate(10.54 -15.96) rotate(7.49)"/><rect class="cls-4" x="127.56" y="28.29" width="0.63" height="88.62" transform="translate(10.63 -16.15) rotate(7.54)"/><path class="cls-5" d="M120.79,227A106.25,106.25,0,1,1,227,120.79,106.36,106.36,0,0,1,120.79,227Zm0-210.32A104.08,104.08,0,1,0,224.86,120.79,104.2,104.2,0,0,0,120.79,16.71Zm0,198.12a94,94,0,1,1,94-94A94.15,94.15,0,0,1,120.79,214.83Zm0-185.92a91.88,91.88,0,1,0,91.87,91.88A92,92,0,0,0,120.79,28.91Z"/><path class="cls-5" d="M109.76,225.75,101,214l-12.8,7.16L82,207.87l-14,4.32-3.23-14.3-14.6,1.32L50,184.55,35.4,182.82l2.84-14.38-13.89-4.72,5.78-13.48-12.6-7.51,8.47-12-10.75-10,10.75-10-8.47-12,12.6-7.51L24.35,77.85l13.89-4.72L35.4,58.74,50,57l.2-14.67,14.6,1.33L68,29.37l14,4.34,6.14-13.32L101,27.55l8.8-11.73,11,9.67,11-9.67,8.8,11.73,12.8-7.16,6.14,13.32,14-4.34,3.24,14.31,14.6-1.32L191.61,57l14.56,1.73-2.84,14.38,13.89,4.72-5.78,13.48L224,98.84l-8.47,12,10.75,10-10.75,10,8.47,12-12.6,7.51,5.78,13.48-13.89,4.72,2.84,14.38-14.57,1.73-.2,14.67-14.6-1.33-3.24,14.31-14-4.33-6.14,13.31L140.61,214l-8.8,11.73-11-9.67Zm-8.4-13.62,8.62,11.5,10.81-9.48,10.8,9.48,8.62-11.5,12.54,7,6-13,13.73,4.24,3.17-14,14.31,1.3.19-14.37,14.27-1.69-2.78-14.1,13.61-4.62-5.66-13.2L222,142.29l-8.3-11.74,10.54-9.76L213.65,111,222,99.28l-12.34-7.36,5.66-13.2L201.66,74.1,204.45,60l-14.28-1.69L190,43.94l-14.31,1.3-3.17-14-13.73,4.24-6-13-12.54,7-8.62-11.5-10.8,9.47L110,17.94l-8.62,11.5-12.54-7-6,13L69.07,31.22l-3.16,14-14.32-1.3L51.4,58.31,37.12,60l2.79,14.1L26.3,78.71,32,91.92,19.62,99.28,27.92,111l-10.54,9.78,10.54,9.77-8.3,11.73L32,149.65l-5.66,13.2,13.61,4.62-2.79,14.1,14.27,1.69.2,14.37,14.31-1.3,3.17,14,13.73-4.24,6,13Z"/><path class="cls-5" d="M122.48,226.34l-10.13-10.61-11.86,8.64L92.8,211.88l-13.39,6-5-13.8-14.33,3.09-2-14.53-14.67,0,1.1-14.62-14.35-3L34.36,161,21,155l6.94-12.91L16,133.51l9.48-11.2-9.84-10.88,11.61-9L19.9,89.78l13.22-6.35L28.55,69.49,42.8,66,41.22,51.43,55.88,51l1.49-14.59L71.8,39l4.52-14,13.57,5.58,7.29-12.73,12.13,8.25,9.78-10.92,10.13,10.6,11.86-8.64,7.69,12.49,13.39-6,5,13.8,14.33-3.09,2,14.53,14.67,0L197,63.52l14.35,3-4.13,14.07,13.41,5.94-6.94,12.92,11.89,8.58-9.47,11.2,9.83,10.88-11.61,9,7.35,12.69-13.22,6.35L213,172.08l-14.25,3.48,1.58,14.58-14.66.45-1.49,14.59-14.44-2.63-4.51,14-13.57-5.58-7.29,12.73-12.13-8.25Zm-10-12.53,9.92,10.39L132,213.5l11.88,8.08,7.15-12.47,13.29,5.46,4.43-13.67,14.13,2.58,1.47-14.3,14.36-.44-1.54-14.28,14-3.42-4.47-13.65,12.95-6.23-7.2-12.44L223.81,130l-9.64-10.66,9.29-11-11.66-8.4,6.8-12.66-13.14-5.83,4-13.79-14.06-3,1.08-14.33-14.37,0-1.94-14.24-14.05,3-4.85-13.53-13.11,5.86-7.55-12.23-11.61,8.47-9.92-10.39-9.59,10.7L97.66,20,90.51,32.46,77.21,27,72.79,40.67,58.65,38.09l-1.46,14.3-14.36.44,1.54,14.28-14,3.42,4.48,13.65-13,6.23,7.21,12.43-11.38,8.78,9.64,10.66-9.29,11,11.66,8.4L23,154.31l13.13,5.83-4,13.79,14.06,3L45,191.22l14.37-.05,1.94,14.24,14.05-3,4.85,13.53L93.36,210l7.55,12.24Z"/><path class="cls-3" d="M131.8,120.79a11,11,0,1,1-11-11A11,11,0,0,1,131.8,120.79Z"/></g></g></svg>