<svg xmlns="http://www.w3.org/2000/svg" viewBox="0 0 215.52 448.13"><defs><style>.cls-1,.cls-22{fill:#69c8ce;}.cls-1,.cls-10,.cls-11,.cls-12,.cls-13,.cls-14,.cls-15,.cls-16,.cls-17,.cls-18,.cls-2,.cls-3,.cls-4,.cls-5,.cls-6,.cls-8,.cls-9{fill-rule:evenodd;}.cls-2,.cls-21{fill:#53afb5;}.cls-3{fill:#3cb1bd;}.cls-4{fill:#63b9bc;}.cls-5{fill:#dd6b26;}.cls-6{fill:#f48120;}.cls-7{fill:#50babd;}.cls-8{fill:#008895;}.cls-9{fill:#58c4c8;}.cls-10,.cls-19{fill:#65c7ce;}.cls-11{fill:#00a2b2;}.cls-12{fill:#00747d;}.cls-13{fill:#0098a3;}.cls-14{fill:#5aadb1;}.cls-15{fill:#519fa3;}.cls-16{fill:#5ebcc1;}.cls-17{fill:#00808a;}.cls-18{fill:#007982;}.cls-20{fill:#4fa1a5;}.cls-23{fill:#61b9bc;}.cls-24{fill:#2e9298;}</style></defs><title>Asset 4</title><g id="Layer_2" data-name="Layer 2"><g id="Layer_1-2" data-name="Layer 1"><path class="cls-1" d="M139.74,146.31c2.44,4.47,20.18,28.74,25.42,34,7.32,7.35-1,24.74-14.21,10.37-.48-.52-1.16-.94-1.77-1.56-8.12-8.29-21.84-32.24-21.84-32.24Z"/><path class="cls-2" d="M164.74,194.66c-3,2.52-7.91,2.44-13.79-4-.48-.52-1.16-.94-1.77-1.56-6.59-6.73-16.86-23.76-20.5-29.94l4.24-3.33C134.14,155.75,164.66,194.56,164.74,194.66Z"/><polygon class="cls-3" points="85.05 135.05 131.95 135 146.63 317.18 68.35 317.46 85.05 135.05"/><path class="cls-1" d="M136.84,244.15c2,1.81,14.08,61.3,14.08,61.3L59.46,317.32Z"/><path class="cls-1" d="M106.29,227.11s35.58-33.58,33.27-33.39,8.6,58.69,8.6,58.69L75.7,317.57l9.89-67.18Z"/><polygon class="cls-3" points="80.22 269.15 59.46 317.32 77.23 317.59 139.56 193.72 80.22 269.15"/><polygon class="cls-1" points="134.99 166.09 140.44 192.34 59.46 317.32 65.29 298.93 76.89 241.13 134.99 166.09"/><polygon class="cls-3" points="127.48 146.57 147.78 151.16 74.14 251.39 75.19 235.89 127.48 146.57"/><polygon class="cls-1" points="75.19 235.89 147.78 151.16 132.44 134.94 116.41 131.82 107.14 131.87 96.14 132.75 77.4 201.99 75.19 235.89"/><path class="cls-4" d="M124.4,133.37l-8-1.55-9.27.05-6.11.49a13,13,0,0,0-.14,1.89,11.78,11.78,0,1,0,23.54-.06C124.43,133.92,124.42,133.64,124.4,133.37Z"/><path class="cls-5" d="M69.88,37.81C80.73,29.33,71.35,9.92,62.17,0c.93,5.32,1.57,9.87-.64,15,.75-1.38-4.23-7.36-5.62-8.19,1.62,10.08-10.24,27.86,4.32,31.84A13.45,13.45,0,0,0,69.88,37.81Z"/><path class="cls-6" d="M62.24.4c.89,5.15,1.44,9.6-.71,14.56.6-1.12-2.54-5.25-4.5-7.23-.14.4-.3.8-.47,1.2.21-.4-.05-1.17-.56-2.1l-.09-.06c1.13,7-4.31,17.84-2.74,25.07a14.54,14.54,0,0,0,2.09.74,13.45,13.45,0,0,0,9.65-.8C73.73,24.89,69.18,10.77,62.24.4Z"/><path class="cls-1" d="M67.68,56.76c0,17.69.53,59.1,28.44,80.11L83.83,151.32C65.42,125.06,56,105.88,58.19,56.81Z"/><path class="cls-2" d="M90,144.09l-6.15,7.23C65.42,125.06,56,105.88,58.19,56.81l4.45,0C63.61,99.94,64.48,107.58,90,144.09Z"/><rect class="cls-7" x="68.79" y="49.55" width="3.59" height="10.11" rx="1.02" ry="1.02" transform="translate(-0.15 0.19) rotate(-0.15)"/><path class="cls-8" d="M62.11,36.68h1a2.4,2.4,0,0,1,2.4,2.38l.07,31.66a2.4,2.4,0,0,1-2.38,2.4h-1a2.4,2.4,0,0,1-2.4-2.38l-.07-31.67A2.39,2.39,0,0,1,62.11,36.68Z"/><path class="cls-8" d="M57.54,47.5l10.85,0L73.79,40,52.11,40l5.43,7.47Z"/><path class="cls-9" d="M59.47,46.13h6.18a4.1,4.1,0,0,1,4.1,4.09l0,12a4.11,4.11,0,0,1-4.09,4.11H59.52a4.1,4.1,0,0,1-4.11-4.08l0-12A4.13,4.13,0,0,1,59.47,46.13Z"/><path class="cls-10" d="M59.47,46.13h6.18a4.08,4.08,0,0,1,1.44.26c0,.14,0,.28,0,.42l0,12a4.11,4.11,0,0,1-4.09,4.11H56.87a4.08,4.08,0,0,1-1.44-.26c0-.14,0-.28,0-.42l0-12A4.13,4.13,0,0,1,59.47,46.13Z"/><path class="cls-11" d="M50.93,36.32l23.39,0a2.94,2.94,0,0,1,3,2.93h0a3,3,0,0,1-2.94,2.95L51,42.21a3,3,0,0,1-3-2.94h0A2.94,2.94,0,0,1,50.93,36.32Z"/><path class="cls-8" d="M77.27,39.28a3,3,0,0,1-2.94,2.87L51,42.21a3,3,0,0,1-3-2.86Z"/><polygon class="cls-12" points="73.42 104.51 86.4 100.76 99.39 97.01 99.92 100.54 100.44 104.07 86.93 104.29 73.42 104.51"/><polygon class="cls-12" points="151.29 104.33 138.29 100.64 125.29 96.95 124.78 100.48 124.27 104.01 137.78 104.17 151.29 104.33"/><path class="cls-13" d="M111.76,122.61h0c-10,.11-16.17,2.39-17.11-12.38s7-18.8,17-19h0c10.08.13,18,4.13,17.13,18.89S121.77,122.68,111.76,122.61Z"/><path class="cls-14" d="M112.13,125.12h0a7.13,7.13,0,0,1,7.11,7.08v3.18a7.1,7.1,0,0,1-7.08,7.1h0a7.11,7.11,0,0,1-7.1-7.08v-3.18A7.1,7.1,0,0,1,112.13,125.12Z"/><path class="cls-15" d="M119.25,136.92V132a25.18,25.18,0,0,1-7.09,1.24l0,9.26C116.07,142.47,119.26,140,119.25,136.92Z"/><path class="cls-1" d="M111.69,91.26c9.06,0,16.44,9.53,16.46,21.33s-7.61,21.08-16.36,21.41-16.44-9.53-16.47-21.33S102.62,91.28,111.69,91.26Z"/><path class="cls-16" d="M111.69,91.26c9.06,0,16.44,9.53,16.46,21.33s-7.61,21.08-16.36,21.41h-.14l-.1-42.75Z"/><path class="cls-13" d="M111.57,100.91c3.3,7.51,12.38,14.24,16.45,14.41.09-.9-.21,9.88.13-2.72S123.23,92,112,91.27c-.61,0-17.93,1.77-16.65,21.4.06.92.05,1.83.14,2.72C99.53,115.2,108.31,108.43,111.57,100.91Z"/><path class="cls-17" d="M94.6,103.35a49.32,49.32,0,0,1,.6-8.74c-.16-2.9,8.2-4.26,16.35-4.23h0c8.15-.07,16.51,1.25,16.36,4.15a49.77,49.77,0,0,1,.65,8.74c-4.08-2.48-10.11-4.1-17-4.14h0C104.68,99.2,98.66,100.85,94.6,103.35Z"/><path class="cls-18" d="M94.6,103.35c0-.89,0-1.27,0-2.09,5.91-5.14,28.16-5,34,.09,0,.82,0,1,0,1.92-4.08-2.48-10.11-4.1-17-4.14h0C104.68,99.2,98.66,100.85,94.6,103.35Z"/><polygon class="cls-12" points="111.49 66.06 113.77 79.07 115.12 92.85 111.4 94.79 107.99 92.86 109.42 77.91 111.49 66.06"/><polygon class="cls-12" points="89.01 71.06 98.34 81.01 106.81 91.4 104.62 95 100.87 95.35 93.74 81.81 89.01 71.06"/><polygon class="cls-12" points="134.56 70.74 127.09 78.72 116.86 91.16 118.56 94.17 122.82 95.08 128.58 84.1 134.56 70.74"/><polygon class="cls-12" points="73.28 86.2 87.14 89.47 99.42 93.06 99.19 97.21 96.72 99.66 83.08 92.25 73.28 86.2"/><polygon class="cls-12" points="150.37 85.81 138.88 88.5 124.26 92.79 124.23 96.36 126.99 99.38 138.51 93.12 150.37 85.81"/><polygon class="cls-1" points="100.48 132.4 82.74 122.62 59.55 150.68 82.84 175.1 100.48 132.4"/><polygon class="cls-3" points="100.88 132.37 76.3 218.94 73.44 165.25 100.88 132.37"/><polygon class="cls-17" points="157.47 145.24 179.02 158.66 143.99 213.1 123.32 196.93 157.47 145.24"/><polygon class="cls-12" points="173.37 155.14 179.02 158.66 143.99 213.1 138.87 209.09 173.37 155.14"/><rect class="cls-19" x="150.98" y="180.98" width="20.21" height="14.37" rx="4.1" ry="4.1" transform="translate(-83.97 224.22) rotate(-57.8)"/><polygon class="cls-3" points="138.2 141.03 132.44 134.94 88.89 202.38 110.68 175.26 132.78 147.77 133.43 146.96 138.2 141.03"/><polygon class="cls-3" points="149.41 256.9 145.61 238.32 75.7 317.57 149.41 256.9"/><polygon class="cls-3" points="82.74 122.62 78.81 127.37 72.94 134.49 59.55 150.68 74.97 137.93 81.9 132.21 86.87 128.1 89.19 126.18 82.74 122.62"/><rect class="cls-20" x="58.07" y="323.68" width="96.64" height="93.54" transform="translate(-0.87 0.25) rotate(-0.13)"/><rect class="cls-21" x="62.72" y="322.17" width="87.35" height="98.33" transform="translate(-0.87 0.25) rotate(-0.13)"/><rect class="cls-22" x="48.89" y="340.46" width="114.89" height="13.01" transform="translate(-0.81 0.25) rotate(-0.13)"/><rect class="cls-23" x="48.9" y="346.97" width="114.89" height="6.5" transform="translate(-0.8 0.25) rotate(-0.13)"/><rect class="cls-22" x="38.41" y="413.18" width="138.61" height="17.35" transform="translate(-0.99 0.25) rotate(-0.13)"/><rect class="cls-23" x="38.42" y="421.86" width="138.61" height="8.67" transform="translate(-1.02 0.26) rotate(-0.14)"/><rect class="cls-24" x="79.68" y="360.54" width="11.62" height="30.2" transform="translate(-0.9 0.21) rotate(-0.14)"/><rect class="cls-24" x="100.59" y="360.49" width="11.62" height="30.2" transform="translate(-0.87 0.25) rotate(-0.13)"/><rect class="cls-24" x="121.51" y="360.44" width="11.62" height="30.2" transform="translate(-0.9 0.31) rotate(-0.14)"/><rect class="cls-22" x="54.75" y="317.27" width="103.05" height="8.67" transform="translate(-0.75 0.25) rotate(-0.13)"/><rect class="cls-22" x="0.02" y="430.53" width="215.48" height="17.35" transform="matrix(1, 0, 0, 1, -1.03, 0.25)"/><rect class="cls-23" x="0.03" y="439.2" width="215.48" height="8.67" transform="translate(-1.05 0.26) rotate(-0.14)"/></g></g></svg>