<svg xmlns="http://www.w3.org/2000/svg" xmlns:xlink="http://www.w3.org/1999/xlink" viewBox="0 0 350.8 160"><defs><style>.cls-1{fill:#ffe9b5;}.cls-1,.cls-11,.cls-12,.cls-13,.cls-14,.cls-15,.cls-16,.cls-17,.cls-18,.cls-2,.cls-3,.cls-4,.cls-5,.cls-6{fill-rule:evenodd;}.cls-2,.cls-9{fill:#e5cc90;}.cls-3{fill:#6a5d41;}.cls-4,.cls-7{fill:#d2b263;}.cls-5,.cls-8{fill:#c3a560;}.cls-6{fill:#7a6d4d;}.cls-10{fill:#e7d29f;}.cls-11{fill:url(#GradientFill_1);}.cls-12{fill:url(#GradientFill_1-2);}.cls-13{fill:url(#GradientFill_1-3);}.cls-14{fill:url(#GradientFill_1-4);}.cls-15{fill:url(#GradientFill_1-5);}.cls-16{fill:url(#GradientFill_1-6);}.cls-17{fill:url(#GradientFill_1-7);}.cls-18{fill:url(#GradientFill_1-8);}</style><linearGradient id="GradientFill_1" x1="176.35" y1="89.37" x2="176.35" y2="89.35" gradientUnits="userSpaceOnUse"><stop offset="0" stop-color="#fcb614"/><stop offset="0.01" stop-color="#fcb614"/><stop offset="0.48" stop-color="#ec9522"/><stop offset="0.98" stop-color="#e17b26"/><stop offset="1" stop-color="#e17b26"/></linearGradient><linearGradient id="GradientFill_1-2" x1="227.39" y1="93.25" x2="227.39" y2="93.23" xlink:href="#GradientFill_1"/><linearGradient id="GradientFill_1-3" x1="227.31" y1="122.64" x2="227.31" y2="122.63" xlink:href="#GradientFill_1"/><linearGradient id="GradientFill_1-4" x1="126.64" y1="122.38" x2="126.64" y2="122.38" xlink:href="#GradientFill_1"/><linearGradient id="GradientFill_1-5" x1="251.11" y1="93" x2="251.11" y2="92.98" xlink:href="#GradientFill_1"/><linearGradient id="GradientFill_1-6" x1="251.03" y1="122.38" x2="251.03" y2="122.38" xlink:href="#GradientFill_1"/><linearGradient id="GradientFill_1-7" x1="102.02" y1="92.61" x2="102.02" y2="92.6" xlink:href="#GradientFill_1"/><linearGradient id="GradientFill_1-8" x1="101.94" y1="122" x2="101.94" y2="122" xlink:href="#GradientFill_1"/></defs><title>Asset 27</title><g id="Layer_2" data-name="Layer 2"><g id="Layer_1-2" data-name="Layer 1"><polygon class="cls-1" points="25.57 19.47 37.84 19.5 41.1 148.7 21.64 148.65 25.57 19.47"/><polygon class="cls-2" points="31.66 19.49 37.84 19.5 41.1 148.7 31.33 148.67 31.66 19.49"/><path class="cls-3" d="M28,21.29h0a1.26,1.26,0,0,1,1.26,1.27v4.19A1.26,1.26,0,0,1,28,28h0a1.27,1.27,0,0,1-1.27-1.27V22.56A1.28,1.28,0,0,1,28,21.29Z"/><path class="cls-3" d="M31.7,21.3h0A1.27,1.27,0,0,1,33,22.57v4.19A1.27,1.27,0,0,1,31.68,28h0a1.27,1.27,0,0,1-1.27-1.27V22.57A1.29,1.29,0,0,1,31.7,21.3Z"/><path class="cls-3" d="M35.39,21.31h0a1.27,1.27,0,0,1,1.27,1.27v4.19A1.26,1.26,0,0,1,35.38,28h0a1.27,1.27,0,0,1-1.27-1.27V22.58A1.27,1.27,0,0,1,35.39,21.31Z"/><path class="cls-2" d="M37.7,14.89a5.81,5.81,0,0,0,0-.76c0-3.68-2.47-6.69-5.6-6.91l-.44-5.9,0,14.43,6.86,0v-.88Z"/><path class="cls-1" d="M25.66,14.86a5.81,5.81,0,0,1-.05-.76c0-3.68,2.5-6.67,5.63-6.88l.47-5.9,0,14.43-6.86,0v-.87Z"/><polygon class="cls-4" points="38.95 18.2 24.47 18.13 24.48 15.49 38.95 15.57 38.95 18.2"/><polygon class="cls-5" points="24.47 18.13 25.41 19.87 37.86 19.91 38.95 18.2 24.47 18.13"/><polygon class="cls-4" points="40.87 59.64 22.34 59.54 22.34 56.17 40.87 56.27 40.87 59.64"/><polygon class="cls-5" points="22.34 59.54 23.54 61.78 39.47 61.82 40.87 59.64 22.34 59.54"/><polygon class="cls-4" points="42.15 116.53 20.76 116.42 20.77 112.53 42.16 112.64 42.15 116.53"/><polygon class="cls-5" points="20.76 116.42 22.15 119 40.54 119.05 42.15 116.53 20.76 116.42"/><polygon class="cls-1" points="61.18 56.26 70.13 56.28 72.47 148.78 58.36 148.74 61.18 56.26"/><polygon class="cls-2" points="65.63 56.27 70.13 56.28 72.47 148.78 65.39 148.76 65.63 56.27"/><path class="cls-3" d="M63,57.58h0a.93.93,0,0,1,.92.93v3.06a.93.93,0,0,1-.93.92h0a.93.93,0,0,1-.92-.93V58.51A.93.93,0,0,1,63,57.58Z"/><path class="cls-3" d="M65.65,57.59h0a.93.93,0,0,1,.93.93v3a.93.93,0,0,1-.93.93h0a.93.93,0,0,1-.93-.93v-3A.93.93,0,0,1,65.65,57.59Z"/><path class="cls-3" d="M68.35,57.6h0a.93.93,0,0,1,.92.93v3a.92.92,0,0,1-.93.92h0a.93.93,0,0,1-.92-.93v-3A.93.93,0,0,1,68.35,57.6Z"/><path class="cls-2" d="M70,52.92a4.73,4.73,0,0,0,0-.56c0-2.68-1.8-4.88-4.08-5L65.66,43l0,10.52,5,0v-.64Z"/><path class="cls-1" d="M61.24,52.89a4.68,4.68,0,0,1,0-.55c0-2.69,1.82-4.87,4.11-5l.34-4.3,0,10.52h-5v-.64Z"/><polygon class="cls-4" points="70.94 55.33 60.38 55.27 60.38 53.35 70.94 53.41 70.94 55.33"/><polygon class="cls-5" points="60.38 55.27 61.06 56.55 70.14 56.57 70.94 55.33 60.38 55.27"/><polygon class="cls-4" points="72.34 85.57 58.82 85.5 58.83 83.03 72.34 83.11 72.34 85.57"/><polygon class="cls-5" points="58.82 85.5 59.7 87.13 71.32 87.16 72.34 85.57 58.82 85.5"/><polygon class="cls-4" points="73.28 127.08 57.67 127 57.67 124.15 73.28 124.24 73.28 127.08"/><polygon class="cls-5" points="57.67 127 58.68 128.88 72.1 128.91 73.28 127.08 57.67 127"/><polygon class="cls-1" points="328.68 20.26 316.42 20.23 312.49 149.4 331.95 149.45 328.68 20.26"/><polygon class="cls-2" points="322.59 20.24 316.42 20.23 312.49 149.4 322.26 149.43 322.59 20.24"/><path class="cls-3" d="M326.24,22.06h0A1.27,1.27,0,0,0,325,23.33l0,4.18a1.29,1.29,0,0,0,1.27,1.28h0a1.28,1.28,0,0,0,1.28-1.27V23.34A1.28,1.28,0,0,0,326.24,22.06Z"/><path class="cls-3" d="M322.55,22.05h0a1.28,1.28,0,0,0-1.28,1.27V27.5a1.28,1.28,0,0,0,1.27,1.28h0a1.27,1.27,0,0,0,1.27-1.27l0-4.18A1.28,1.28,0,0,0,322.55,22.05Z"/><path class="cls-3" d="M318.85,22h0a1.27,1.27,0,0,0-1.27,1.27v4.18a1.28,1.28,0,0,0,1.27,1.28h0a1.28,1.28,0,0,0,1.27-1.27V23.32A1.28,1.28,0,0,0,318.85,22Z"/><path class="cls-2" d="M316.58,15.61a4.53,4.53,0,0,1,0-.76c0-3.68,2.5-6.67,5.63-6.88l.47-5.89,0,14.42h-6.86v-.88Z"/><path class="cls-1" d="M328.62,15.64a5.7,5.7,0,0,0,.05-.76c0-3.68-2.46-6.68-5.59-6.9l-.44-5.9,0,14.42,6.86,0v-.87Z"/><polygon class="cls-4" points="315.32 18.92 329.79 18.91 329.8 16.28 315.32 16.28 315.32 18.92"/><polygon class="cls-5" points="329.79 18.91 328.84 20.66 316.39 20.63 315.32 18.92 329.79 18.91"/><polygon class="cls-4" points="313.18 60.35 331.71 60.34 331.72 56.97 313.19 56.98 313.18 60.35"/><polygon class="cls-5" points="331.71 60.34 330.5 62.58 314.56 62.53 313.18 60.35 331.71 60.34"/><polygon class="cls-4" points="311.61 117.23 333 117.23 333.01 113.33 311.61 113.34 311.61 117.23"/><polygon class="cls-5" points="333 117.23 331.59 119.81 313.2 119.76 311.61 117.23 333 117.23"/><polygon class="cls-1" points="292.88 56.86 283.94 56.83 281.12 149.32 295.22 149.36 292.88 56.86"/><polygon class="cls-2" points="288.44 56.85 283.94 56.83 281.12 149.32 288.2 149.34 288.44 56.85"/><path class="cls-3" d="M291.1,58.17h0a.93.93,0,0,0-.93.93v3a.93.93,0,0,0,.93.93h0a.93.93,0,0,0,.93-.92V59.1A.94.94,0,0,0,291.1,58.17Z"/><path class="cls-3" d="M288.41,58.17h0a.93.93,0,0,0-.93.92v3a.92.92,0,0,0,.92.93h0a.92.92,0,0,0,.93-.92v-3A.93.93,0,0,0,288.41,58.17Z"/><path class="cls-3" d="M285.71,58.16h0a.93.93,0,0,0-.93.93v3a.93.93,0,0,0,.93.93h0a.93.93,0,0,0,.93-.93v-3A.93.93,0,0,0,285.71,58.16Z"/><path class="cls-2" d="M284.06,53.47a3.2,3.2,0,0,1,0-.56c0-2.68,1.83-4.86,4.11-5l.34-4.31,0,10.53h-5v-.64Z"/><path class="cls-1" d="M292.84,53.49a4.58,4.58,0,0,0,0-.55c0-2.69-1.8-4.88-4.09-5l-.32-4.31,0,10.53h5v-.64Z"/><polygon class="cls-4" points="283.13 55.88 293.69 55.88 293.7 53.95 283.14 53.96 283.13 55.88"/><polygon class="cls-5" points="293.69 55.88 293 57.15 283.92 57.13 283.13 55.88 293.69 55.88"/><polygon class="cls-4" points="281.57 86.11 295.09 86.11 295.1 83.64 281.58 83.65 281.57 86.11"/><polygon class="cls-5" points="295.09 86.11 294.21 87.73 282.58 87.7 281.57 86.11 295.09 86.11"/><polygon class="cls-4" points="280.42 127.61 296.03 127.61 296.04 124.77 280.43 124.77 280.42 127.61"/><polygon class="cls-5" points="296.03 127.61 295 129.49 281.59 129.46 280.42 127.61 296.03 127.61"/><path class="cls-1" d="M138,71.66c0-7.1-7.55-10.42-12.2-15.8h-.53C120.55,61.21,113,64.49,113,71.59a11.07,11.07,0,0,0,1.64,6.08l0,10.49,22.08.06,0-11.14A11.45,11.45,0,0,0,138,71.66Z"/><path class="cls-2" d="M138,71.66c0-7.1-7.55-10.42-12.2-15.8h-.27l-.08,32.33,11.23,0,0-11.14A11.45,11.45,0,0,0,138,71.66Z"/><path class="cls-3" d="M123.11,82.73c0-1.29,1.7-1.37,2.66-2.34,1,1,2.64,1.06,2.65,2.35h0v5.45h-5.32V82.73Z"/><path class="cls-6" d="M123.1,82.73c0-1.29,1.69-1.37,2.65-2.35a3.78,3.78,0,0,0,.83.61c-1,.8-2.43,1-2.45,2.15h0l0,5h-1V82.73Z"/><path class="cls-3" d="M116.44,82.69c0-1.28,1.36-1.36,2.14-2.32.78,1,2.13,1,2.13,2.33h0l0,5.47h-4.28V82.69Z"/><path class="cls-6" d="M116.43,82.69c0-1.28,1.36-1.36,2.14-2.33a2.66,2.66,0,0,0,.66.6c-.79.8-2,1-2,2.14h0v5.07h-.84l0-5.47Z"/><path class="cls-3" d="M135.06,82.74c0-1.28-1.36-1.36-2.13-2.33-.78,1-2.13,1-2.14,2.32h0l0,5.47h4.29V82.74Z"/><path class="cls-6" d="M135.08,82.73c0-1.27-1.36-1.36-2.13-2.33a3.43,3.43,0,0,1-.67.6c.79.79,1.95,1,2,2.14h0v5.07h.83l0-5.48Z"/><rect class="cls-7" x="125.34" y="67.22" width="0.57" height="22.08" transform="translate(47.04 203.69) rotate(-89.85)"/><rect class="cls-8" x="125.48" y="67.37" width="0.28" height="22.08" transform="translate(46.9 203.83) rotate(-89.85)"/><path class="cls-1" d="M217,71.86c0-7.1,7.6-10.38,12.28-15.73h.53c4.64,5.37,12.21,8.7,12.19,15.8A11,11,0,0,1,240.35,78l0,10.48-22.07,0,0-11.14A11.34,11.34,0,0,1,217,71.86Z"/><path class="cls-2" d="M217,71.86c0-7.1,7.6-10.38,12.28-15.73h.26l-.08,32.33-11.23,0,0-11.14A11.34,11.34,0,0,1,217,71.86Z"/><path class="cls-3" d="M231.8,83c0-1.29-1.68-1.38-2.64-2.35-1,1-2.64,1-2.66,2.34h0l0,5.45h5.32V83Z"/><path class="cls-6" d="M231.82,83c0-1.29-1.69-1.38-2.64-2.36a3.65,3.65,0,0,1-.83.6c1,.81,2.42,1,2.43,2.17h0l0,5h1V83Z"/><path class="cls-3" d="M238.48,83c0-1.28-1.36-1.37-2.14-2.34-.77,1-2.12,1-2.14,2.33h0l0,5.47h4.29l0-5.47Z"/><path class="cls-6" d="M238.49,83c0-1.28-1.36-1.36-2.13-2.33a3.09,3.09,0,0,1-.67.59c.79.8,2,1,2,2.15h0v5.07h.84V83Z"/><path class="cls-3" d="M219.85,83c0-1.28,1.37-1.36,2.15-2.32.77,1,2.12,1,2.13,2.33h0v5.47h-4.29V83Z"/><path class="cls-6" d="M219.84,83c0-1.27,1.36-1.35,2.14-2.32a3.07,3.07,0,0,0,.66.6c-.78.79-2,.94-2,2.13h0v5.07h-.84l0-5.48Z"/><rect class="cls-7" x="229.03" y="67.49" width="0.57" height="22.08" transform="translate(150.19 307.64) rotate(-89.85)"/><rect class="cls-8" x="229.17" y="67.63" width="0.28" height="22.08" transform="matrix(0, -1, 1, 0, 150.05, 307.78)"/><path class="cls-1" d="M144,43.19c.05-19.5,20.86-28.51,33.69-43.19L204.9,77.05,177.5,77l-30.1-.08,0-18.83A31.08,31.08,0,0,1,144,43.19Z"/><path class="cls-2" d="M211.17,43.36c.05-19.5-20.72-28.61-33.48-43.36l-.19,77,30.09.08,0-18.83A31.23,31.23,0,0,0,211.17,43.36Z"/><rect class="cls-7" x="173.86" y="7.3" width="7.18" height="160.58" transform="translate(89.4 264.8) rotate(-89.85)"/><polygon class="cls-1" points="259.66 88.13 259.49 153.13 91.6 152.69 92.63 87.7 259.66 88.13"/><polygon class="cls-2" points="92.63 87.7 91.6 152.69 112.33 152.75 112.5 87.75 92.63 87.7"/><rect class="cls-9" x="217.97" y="111.36" width="64.86" height="18.35" transform="translate(129.22 370.63) rotate(-89.85)"/><rect class="cls-10" x="135.96" y="75.38" width="82.85" height="69.86" transform="translate(66.62 287.41) rotate(-89.85)"/><path class="cls-5" d="M202.24,78.76l-50.53-.13v2.76l0,8.21-.14,57.78,50.52.13.15-57.78,0-8.2Z"/><path class="cls-6" d="M193.69,106.68c-.07-9.48-11.05-10.11-17.34-17.31C170,96.54,159,97.11,158.93,106.59h0L158.8,150l34.85.09.11-43.37Z"/><path class="cls-3" d="M193.69,106.68c-.06-7.54-7-9.48-13-13.57-6.4,5.57-15.52,6.81-15.63,15.45h0L164.93,150l28.72.08.11-43.37Z"/><path class="cls-11" d="M176.33,89.35l0,0s0,0,0,0Z"/><path class="cls-3" d="M234.6,100.45c0-3.94-4.59-4.21-7.21-7.2-2.64,3-7.21,3.22-7.25,7.17h0l0,18,14.5,0,0-18Z"/><path class="cls-12" d="M227.38,93.24h0Z"/><path class="cls-6" d="M234.66,100.44c0-4-4.61-4.21-7.22-7.21a10.08,10.08,0,0,1-2.26,1.84c2.66,2.46,6.62,3,6.64,6.62h0l0,16.8h2.83l.05-18Z"/><path class="cls-3" d="M234.53,129.85c0-3.95-4.6-4.21-7.22-7.21-2.63,3-7.2,3.22-7.25,7.17h0L220,147.87l14.5,0,.05-18.06Z"/><polygon class="cls-13" points="227.31 122.64 227.31 122.64 227.32 122.64 227.31 122.64"/><path class="cls-6" d="M234.58,129.83c0-4-4.6-4.2-7.21-7.2a10.36,10.36,0,0,1-2.26,1.84c2.65,2.46,6.61,2.94,6.64,6.61h0l-.05,16.8h2.83l.05-18.06Z"/><path class="cls-3" d="M119.46,100.16c.05-4,4.63-4.19,7.26-7.17,2.62,3,7.19,3.26,7.21,7.2h0l-.05,18-14.51,0,.05-18Z"/><path class="cls-6" d="M119.42,100.14c0-3.94,4.62-4.18,7.25-7.17a9.77,9.77,0,0,0,2.24,1.85c-2.67,2.45-6.63,2.91-6.67,6.59h0l0,16.79h-2.82l0-18.06Z"/><path class="cls-3" d="M119.39,129.55c0-4,4.62-4.18,7.25-7.17,2.62,3,7.19,3.26,7.22,7.21h0l0,18.06-14.51,0,0-18.06Z"/><path class="cls-14" d="M126.65,122.38h0Z"/><path class="cls-6" d="M119.34,129.54c0-3.95,4.62-4.18,7.25-7.17a9.86,9.86,0,0,0,2.25,1.85c-2.67,2.44-6.63,2.91-6.68,6.58h0l0,16.8h-2.83l0-18.05Z"/><rect class="cls-8" x="169.35" y="-21.89" width="12.11" height="350.77" transform="translate(21.45 328.5) rotate(-89.85)"/><rect class="cls-10" x="172.48" y="-25.02" width="5.86" height="350.77" transform="translate(24.59 325.39) rotate(-89.85)"/><rect class="cls-7" x="175.87" y="29.79" width="3.25" height="74.46" transform="translate(110.02 244.35) rotate(-89.85)"/><rect class="cls-8" x="176.84" y="31.23" width="1.3" height="74.42" transform="translate(108.59 245.75) rotate(-89.85)"/><rect class="cls-7" x="176.02" y="30.58" width="3.03" height="61.74" transform="translate(115.62 238.83) rotate(-89.85)"/><rect class="cls-8" x="176.78" y="31.34" width="1.52" height="61.74" transform="translate(114.86 239.58) rotate(-89.85)"/><path class="cls-3" d="M256.29,100.2c0-4-3.3-4.21-5.18-7.2-1.9,3-5.18,3.22-5.22,7.17h0l0,18,10.42,0,.05-18Z"/><path class="cls-15" d="M251.1,93a0,0,0,0,1,0,0h0Z"/><path class="cls-6" d="M256.32,100.18c0-3.94-3.3-4.2-5.17-7.2a8.4,8.4,0,0,1-1.63,1.84c1.91,2.46,4.75,2.94,4.77,6.62h0l0,16.79h2l0-18.06Z"/><path class="cls-3" d="M256.21,129.59c0-4-3.3-4.2-5.18-7.21-1.89,3-5.18,3.24-5.21,7.19h0l0,18.05,10.41,0,.05-18.06Z"/><polygon class="cls-16" points="251.03 122.38 251.03 122.38 251.04 122.38 251.03 122.38"/><path class="cls-6" d="M256.25,129.58c0-4-3.31-4.2-5.18-7.21a8.15,8.15,0,0,1-1.62,1.84c1.9,2.47,4.75,2.94,4.76,6.62h0l0,16.8h2l0-18Z"/><path class="cls-3" d="M96.8,99.78c0-3.94,3.32-4.19,5.22-7.17,1.88,3,5.16,3.25,5.18,7.2h0l0,18-10.41,0,0-18Z"/><path class="cls-17" d="M102,92.6h0Z"/><path class="cls-6" d="M96.77,99.77c0-4,3.32-4.19,5.21-7.17a8.37,8.37,0,0,0,1.62,1.84c-1.92,2.45-4.77,2.92-4.8,6.6h0l0,16.79h-2l0-18Z"/><path class="cls-3" d="M96.73,129.18c0-4,3.32-4.19,5.21-7.18,1.88,3,5.17,3.26,5.18,7.21h0l0,18-10.42,0,0-18.06Z"/><polygon class="cls-18" points="101.95 122 101.94 122 101.94 122 101.95 122"/><path class="cls-6" d="M96.69,129.16c0-4,3.33-4.18,5.22-7.17a8.15,8.15,0,0,0,1.61,1.85c-1.92,2.45-4.76,2.91-4.8,6.59h0l0,16.8h-2l0-18.06Z"/><rect class="cls-8" x="104.38" y="107.15" width="78.36" height="2.06" transform="translate(34.99 251.44) rotate(-89.85)"/><rect class="cls-8" x="172.09" y="107.33" width="78.36" height="2.06" transform="translate(102.35 319.33) rotate(-89.85)"/></g></g></svg>